<svg width="24" height="24" viewBox="0 0 24 24" fill="none" xmlns="http://www.w3.org/2000/svg">
<path d="M12 2C6.5 2 2 6.725 2 12.5C2 18.275 6.5 23 12 23C13.3333 23 14.4167 22.5625 15.5833 22.0375C15.9167 21.95 16.1667 21.6 16.1667 21.25C16.1667 20.725 15.8333 20.375 15.3333 20.375C15.0833 20.375 15 20.4625 15 20.4625C14 20.9 13.1667 21.25 12 21.25C7.41667 21.25 3.66667 17.3125 3.66667 12.5C3.66667 7.6875 7.41667 3.75 12 3.75C16.5833 3.75 20.3333 7.6875 20.3333 12.5V13.8125C20.3333 15.0375 19.4167 16 18.25 16C17.0833 16 16.1667 15.0375 16.1667 13.8125V9C16.1667 8.475 15.8333 8.125 15.3333 8.125C14.8333 8.125 14.5 8.475 14.5 9C13.8333 8.475 12.9167 8.125 12 8.125C9.66667 8.125 7.83333 10.05 7.83333 12.5C7.83333 14.95 9.66667 16.875 12 16.875C13.1667 16.875 14.1667 16.35 14.9167 15.65C15.5 16.875 16.75 17.75 18.25 17.75C20.3333 17.75 22 16 22 13.8125V12.5C22 6.725 17.5 2 12 2ZM12 15.125C10.5833 15.125 9.5 13.9875 9.5 12.5C9.5 11.0125 10.5833 9.875 12 9.875C13.4167 9.875 14.5 11.0125 14.5 12.5C14.5 13.9875 13.4167 15.125 12 15.125Z" fill="url(#paint0_linear_193_3658)"/>
<path d="M12 2C6.5 2 2 6.725 2 12.5C2 18.275 6.5 23 12 23C13.3333 23 14.4167 22.5625 15.5833 22.0375C15.9167 21.95 16.1667 21.6 16.1667 21.25C16.1667 20.725 15.8333 20.375 15.3333 20.375C15.0833 20.375 15 20.4625 15 20.4625C14 20.9 13.1667 21.25 12 21.25C7.41667 21.25 3.66667 17.3125 3.66667 12.5C3.66667 7.6875 7.41667 3.75 12 3.75C16.5833 3.75 20.3333 7.6875 20.3333 12.5V13.8125C20.3333 15.0375 19.4167 16 18.25 16C17.0833 16 16.1667 15.0375 16.1667 13.8125V9C16.1667 8.475 15.8333 8.125 15.3333 8.125C14.8333 8.125 14.5 8.475 14.5 9C13.8333 8.475 12.9167 8.125 12 8.125C9.66667 8.125 7.83333 10.05 7.83333 12.5C7.83333 14.95 9.66667 16.875 12 16.875C13.1667 16.875 14.1667 16.35 14.9167 15.65C15.5 16.875 16.75 17.75 18.25 17.75C20.3333 17.75 22 16 22 13.8125V12.5C22 6.725 17.5 2 12 2ZM12 15.125C10.5833 15.125 9.5 13.9875 9.5 12.5C9.5 11.0125 10.5833 9.875 12 9.875C13.4167 9.875 14.5 11.0125 14.5 12.5C14.5 13.9875 13.4167 15.125 12 15.125Z" fill="#747F8B"/>
<defs>
<linearGradient id="paint0_linear_193_3658" x1="2" y1="2" x2="25.8263" y2="12.6449" gradientUnits="userSpaceOnUse">
<stop stop-color="#FF4A1A"/>
<stop offset="1" stop-color="#FF7428"/>
</linearGradient>
</defs>
</svg>
