<svg width="24" height="24" viewBox="0 0 24 24" fill="none" xmlns="http://www.w3.org/2000/svg">
<path d="M13.7316 10.0561H18.3186C18.6421 10.0555 18.9522 9.92691 19.1809 9.69843C19.4096 9.46996 19.5384 9.16025 19.539 8.83714V7.36449C19.5384 7.04138 19.4096 6.73167 19.1809 6.50319C18.9522 6.27472 18.6421 6.1461 18.3186 6.14551H13.7316C13.4081 6.1461 13.0981 6.27472 12.8693 6.50319C12.6406 6.73167 12.5118 7.04138 12.5112 7.36449V8.8349C12.5112 9.1584 12.6397 9.46868 12.8685 9.69764C13.0973 9.9266 13.4077 10.0555 13.7316 10.0561ZM13.635 7.36224C13.635 7.33664 13.6451 7.31209 13.6633 7.29399C13.6814 7.27588 13.706 7.26571 13.7316 7.26571H18.3186C18.3443 7.26571 18.3688 7.27588 18.387 7.29399C18.4051 7.31209 18.4153 7.33664 18.4153 7.36224V8.8349C18.4153 8.8605 18.4051 8.88505 18.387 8.90315C18.3688 8.92126 18.3443 8.93143 18.3186 8.93143H13.7316C13.706 8.93143 13.6814 8.92126 13.6633 8.90315C13.6451 8.88505 13.635 8.8605 13.635 8.8349V7.36224Z" fill="url(#paint0_linear_193_3630)"/>
<path d="M13.7316 10.0561H18.3186C18.6421 10.0555 18.9522 9.92691 19.1809 9.69843C19.4096 9.46996 19.5384 9.16025 19.539 8.83714V7.36449C19.5384 7.04138 19.4096 6.73167 19.1809 6.50319C18.9522 6.27472 18.6421 6.1461 18.3186 6.14551H13.7316C13.4081 6.1461 13.0981 6.27472 12.8693 6.50319C12.6406 6.73167 12.5118 7.04138 12.5112 7.36449V8.8349C12.5112 9.1584 12.6397 9.46868 12.8685 9.69764C13.0973 9.9266 13.4077 10.0555 13.7316 10.0561ZM13.635 7.36224C13.635 7.33664 13.6451 7.31209 13.6633 7.29399C13.6814 7.27588 13.706 7.26571 13.7316 7.26571H18.3186C18.3443 7.26571 18.3688 7.27588 18.387 7.29399C18.4051 7.31209 18.4153 7.33664 18.4153 7.36224V8.8349C18.4153 8.8605 18.4051 8.88505 18.387 8.90315C18.3688 8.92126 18.3443 8.93143 18.3186 8.93143H13.7316C13.706 8.93143 13.6814 8.92126 13.6633 8.90315C13.6451 8.88505 13.635 8.8605 13.635 8.8349V7.36224Z" fill="#747F8B"/>
<path d="M13.7316 10.0561H18.3186C18.6421 10.0555 18.9522 9.92691 19.1809 9.69843C19.4096 9.46996 19.5384 9.16025 19.539 8.83714V7.36449C19.5384 7.04138 19.4096 6.73167 19.1809 6.50319C18.9522 6.27472 18.6421 6.1461 18.3186 6.14551H13.7316C13.4081 6.1461 13.0981 6.27472 12.8693 6.50319C12.6406 6.73167 12.5118 7.04138 12.5112 7.36449V8.8349C12.5112 9.1584 12.6397 9.46868 12.8685 9.69764C13.0973 9.9266 13.4077 10.0555 13.7316 10.0561ZM13.635 7.36224C13.635 7.33664 13.6451 7.31209 13.6633 7.29399C13.6814 7.27588 13.706 7.26571 13.7316 7.26571H18.3186C18.3443 7.26571 18.3688 7.27588 18.387 7.29399C18.4051 7.31209 18.4153 7.33664 18.4153 7.36224V8.8349C18.4153 8.8605 18.4051 8.88505 18.387 8.90315C18.3688 8.92126 18.3443 8.93143 18.3186 8.93143H13.7316C13.706 8.93143 13.6814 8.92126 13.6633 8.90315C13.6451 8.88505 13.635 8.8605 13.635 8.8349V7.36224Z" stroke="#747F8B" stroke-width="0.3"/>
<path d="M22 17.7851V5.90286C22.0006 5.61336 21.9441 5.32658 21.8337 5.05889C21.7234 4.79121 21.5613 4.54785 21.3568 4.34273C21.1522 4.13761 20.9093 3.97473 20.6417 3.8634C20.3742 3.75207 20.0873 3.69447 19.7975 3.69388H11.1831C11.1569 2.97144 10.8515 2.28722 10.331 1.78491C9.81055 1.2826 9.11546 1.00127 8.39173 1H7.46129C6.73755 1.00127 6.04247 1.2826 5.52199 1.78491C5.0015 2.28722 4.69612 2.97144 4.66996 3.69388H4.20474C3.62019 3.69447 3.05975 3.92668 2.64641 4.33956C2.23307 4.75243 2.00059 5.31223 2 5.89612V17.7851C2.00059 18.369 2.23307 18.9288 2.64641 19.3417C3.05975 19.7545 3.62019 19.9868 4.20474 19.9873H7.36465V20.3061C7.36465 21.0206 7.64879 21.7058 8.15456 22.211C8.40499 22.4611 8.7023 22.6596 9.02951 22.7949C9.35671 22.9303 9.70741 23 10.0616 23H13.8822C14.5975 23 15.2835 22.7162 15.7892 22.211C16.295 21.7058 16.5792 21.0206 16.5792 20.3061V19.9873H19.7975C20.3817 19.9862 20.9415 19.7537 21.3544 19.3409C21.7672 18.9281 21.9994 18.3686 22 17.7851ZM5.78919 3.7949C5.78919 3.35173 5.96528 2.92667 6.2788 2.61309C6.59231 2.29951 7.01761 2.12304 7.46129 2.12245H8.38948C8.83354 2.12245 9.25942 2.29865 9.57342 2.6123C9.88742 2.92594 10.0638 3.35134 10.0638 3.7949V15.9173C10.0638 16.015 10.025 16.1086 9.95587 16.1777C9.88675 16.2467 9.793 16.2855 9.69525 16.2855H6.15777C6.06002 16.2855 5.96627 16.2467 5.89714 16.1777C5.82802 16.1086 5.78919 16.015 5.78919 15.9173V3.7949ZM4.21598 18.8649C4.07402 18.8649 3.93345 18.837 3.80229 18.7827C3.67113 18.7284 3.55196 18.6489 3.45158 18.5486C3.3512 18.4484 3.27157 18.3293 3.21725 18.1983C3.16292 18.0673 3.13496 17.9269 3.13496 17.7851V5.90286C3.13316 5.61725 3.24472 5.34256 3.44522 5.13892C3.64572 4.93529 3.91882 4.81929 4.20474 4.81633H4.65423V15.9263C4.65422 16.123 4.69319 16.3178 4.76889 16.4994C4.84459 16.6809 4.95552 16.8458 5.09528 16.9843C5.23505 17.1229 5.40089 17.2325 5.58324 17.3067C5.76559 17.381 5.96085 17.4184 6.15777 17.4169H7.36689V18.8649H4.21598ZM15.4622 20.3061C15.4622 20.7229 15.2964 21.1226 15.0014 21.4173C14.7064 21.712 14.3062 21.8776 13.889 21.8776H10.0683C9.65108 21.8776 9.25093 21.712 8.95589 21.4173C8.66086 21.1226 8.49511 20.7229 8.49511 20.3061V17.4169H9.70423C10.1 17.4169 10.4796 17.2599 10.7595 16.9803C11.0393 16.7008 11.1965 16.3217 11.1965 15.9263V4.81633H19.8042C20.0909 4.81633 20.3659 4.93009 20.5686 5.13259C20.7714 5.33509 20.8853 5.60974 20.8853 5.89612V17.7851C20.8853 17.9269 20.8573 18.0673 20.803 18.1983C20.7487 18.3293 20.669 18.4484 20.5686 18.5486C20.4683 18.6489 20.3491 18.7284 20.2179 18.7827C20.0868 18.837 19.9462 18.8649 19.8042 18.8649H10.1402C9.99122 18.8649 9.84831 18.924 9.74294 19.0293C9.63757 19.1345 9.57838 19.2773 9.57838 19.4261C9.57838 19.575 9.63757 19.7177 9.74294 19.823C9.84831 19.9282 9.99122 19.9873 10.1402 19.9873H15.4622V20.3061Z" fill="url(#paint1_linear_193_3630)"/>
<path d="M22 17.7851V5.90286C22.0006 5.61336 21.9441 5.32658 21.8337 5.05889C21.7234 4.79121 21.5613 4.54785 21.3568 4.34273C21.1522 4.13761 20.9093 3.97473 20.6417 3.8634C20.3742 3.75207 20.0873 3.69447 19.7975 3.69388H11.1831C11.1569 2.97144 10.8515 2.28722 10.331 1.78491C9.81055 1.2826 9.11546 1.00127 8.39173 1H7.46129C6.73755 1.00127 6.04247 1.2826 5.52199 1.78491C5.0015 2.28722 4.69612 2.97144 4.66996 3.69388H4.20474C3.62019 3.69447 3.05975 3.92668 2.64641 4.33956C2.23307 4.75243 2.00059 5.31223 2 5.89612V17.7851C2.00059 18.369 2.23307 18.9288 2.64641 19.3417C3.05975 19.7545 3.62019 19.9868 4.20474 19.9873H7.36465V20.3061C7.36465 21.0206 7.64879 21.7058 8.15456 22.211C8.40499 22.4611 8.7023 22.6596 9.02951 22.7949C9.35671 22.9303 9.70741 23 10.0616 23H13.8822C14.5975 23 15.2835 22.7162 15.7892 22.211C16.295 21.7058 16.5792 21.0206 16.5792 20.3061V19.9873H19.7975C20.3817 19.9862 20.9415 19.7537 21.3544 19.3409C21.7672 18.9281 21.9994 18.3686 22 17.7851ZM5.78919 3.7949C5.78919 3.35173 5.96528 2.92667 6.2788 2.61309C6.59231 2.29951 7.01761 2.12304 7.46129 2.12245H8.38948C8.83354 2.12245 9.25942 2.29865 9.57342 2.6123C9.88742 2.92594 10.0638 3.35134 10.0638 3.7949V15.9173C10.0638 16.015 10.025 16.1086 9.95587 16.1777C9.88675 16.2467 9.793 16.2855 9.69525 16.2855H6.15777C6.06002 16.2855 5.96627 16.2467 5.89714 16.1777C5.82802 16.1086 5.78919 16.015 5.78919 15.9173V3.7949ZM4.21598 18.8649C4.07402 18.8649 3.93345 18.837 3.80229 18.7827C3.67113 18.7284 3.55196 18.6489 3.45158 18.5486C3.3512 18.4484 3.27157 18.3293 3.21725 18.1983C3.16292 18.0673 3.13496 17.9269 3.13496 17.7851V5.90286C3.13316 5.61725 3.24472 5.34256 3.44522 5.13892C3.64572 4.93529 3.91882 4.81929 4.20474 4.81633H4.65423V15.9263C4.65422 16.123 4.69319 16.3178 4.76889 16.4994C4.84459 16.6809 4.95552 16.8458 5.09528 16.9843C5.23505 17.1229 5.40089 17.2325 5.58324 17.3067C5.76559 17.381 5.96085 17.4184 6.15777 17.4169H7.36689V18.8649H4.21598ZM15.4622 20.3061C15.4622 20.7229 15.2964 21.1226 15.0014 21.4173C14.7064 21.712 14.3062 21.8776 13.889 21.8776H10.0683C9.65108 21.8776 9.25093 21.712 8.95589 21.4173C8.66086 21.1226 8.49511 20.7229 8.49511 20.3061V17.4169H9.70423C10.1 17.4169 10.4796 17.2599 10.7595 16.9803C11.0393 16.7008 11.1965 16.3217 11.1965 15.9263V4.81633H19.8042C20.0909 4.81633 20.3659 4.93009 20.5686 5.13259C20.7714 5.33509 20.8853 5.60974 20.8853 5.89612V17.7851C20.8853 17.9269 20.8573 18.0673 20.803 18.1983C20.7487 18.3293 20.669 18.4484 20.5686 18.5486C20.4683 18.6489 20.3491 18.7284 20.2179 18.7827C20.0868 18.837 19.9462 18.8649 19.8042 18.8649H10.1402C9.99122 18.8649 9.84831 18.924 9.74294 19.0293C9.63757 19.1345 9.57838 19.2773 9.57838 19.4261C9.57838 19.575 9.63757 19.7177 9.74294 19.823C9.84831 19.9282 9.99122 19.9873 10.1402 19.9873H15.4622V20.3061Z" fill="#747F8B"/>
<path d="M22 17.7851V5.90286C22.0006 5.61336 21.9441 5.32658 21.8337 5.05889C21.7234 4.79121 21.5613 4.54785 21.3568 4.34273C21.1522 4.13761 20.9093 3.97473 20.6417 3.8634C20.3742 3.75207 20.0873 3.69447 19.7975 3.69388H11.1831C11.1569 2.97144 10.8515 2.28722 10.331 1.78491C9.81055 1.2826 9.11546 1.00127 8.39173 1H7.46129C6.73755 1.00127 6.04247 1.2826 5.52199 1.78491C5.0015 2.28722 4.69612 2.97144 4.66996 3.69388H4.20474C3.62019 3.69447 3.05975 3.92668 2.64641 4.33956C2.23307 4.75243 2.00059 5.31223 2 5.89612V17.7851C2.00059 18.369 2.23307 18.9288 2.64641 19.3417C3.05975 19.7545 3.62019 19.9868 4.20474 19.9873H7.36465V20.3061C7.36465 21.0206 7.64879 21.7058 8.15456 22.211C8.40499 22.4611 8.7023 22.6596 9.02951 22.7949C9.35671 22.9303 9.70741 23 10.0616 23H13.8822C14.5975 23 15.2835 22.7162 15.7892 22.211C16.295 21.7058 16.5792 21.0206 16.5792 20.3061V19.9873H19.7975C20.3817 19.9862 20.9415 19.7537 21.3544 19.3409C21.7672 18.9281 21.9994 18.3686 22 17.7851ZM5.78919 3.7949C5.78919 3.35173 5.96528 2.92667 6.2788 2.61309C6.59231 2.29951 7.01761 2.12304 7.46129 2.12245H8.38948C8.83354 2.12245 9.25942 2.29865 9.57342 2.6123C9.88742 2.92594 10.0638 3.35134 10.0638 3.7949V15.9173C10.0638 16.015 10.025 16.1086 9.95587 16.1777C9.88675 16.2467 9.793 16.2855 9.69525 16.2855H6.15777C6.06002 16.2855 5.96627 16.2467 5.89714 16.1777C5.82802 16.1086 5.78919 16.015 5.78919 15.9173V3.7949ZM4.21598 18.8649C4.07402 18.8649 3.93345 18.837 3.80229 18.7827C3.67113 18.7284 3.55196 18.6489 3.45158 18.5486C3.3512 18.4484 3.27157 18.3293 3.21725 18.1983C3.16292 18.0673 3.13496 17.9269 3.13496 17.7851V5.90286C3.13316 5.61725 3.24472 5.34256 3.44522 5.13892C3.64572 4.93529 3.91882 4.81929 4.20474 4.81633H4.65423V15.9263C4.65422 16.123 4.69319 16.3178 4.76889 16.4994C4.84459 16.6809 4.95552 16.8458 5.09528 16.9843C5.23505 17.1229 5.40089 17.2325 5.58324 17.3067C5.76559 17.381 5.96085 17.4184 6.15777 17.4169H7.36689V18.8649H4.21598ZM15.4622 20.3061C15.4622 20.7229 15.2964 21.1226 15.0014 21.4173C14.7064 21.712 14.3062 21.8776 13.889 21.8776H10.0683C9.65108 21.8776 9.25093 21.712 8.95589 21.4173C8.66086 21.1226 8.49511 20.7229 8.49511 20.3061V17.4169H9.70423C10.1 17.4169 10.4796 17.2599 10.7595 16.9803C11.0393 16.7008 11.1965 16.3217 11.1965 15.9263V4.81633H19.8042C20.0909 4.81633 20.3659 4.93009 20.5686 5.13259C20.7714 5.33509 20.8853 5.60974 20.8853 5.89612V17.7851C20.8853 17.9269 20.8573 18.0673 20.803 18.1983C20.7487 18.3293 20.669 18.4484 20.5686 18.5486C20.4683 18.6489 20.3491 18.7284 20.2179 18.7827C20.0868 18.837 19.9462 18.8649 19.8042 18.8649H10.1402C9.99122 18.8649 9.84831 18.924 9.74294 19.0293C9.63757 19.1345 9.57838 19.2773 9.57838 19.4261C9.57838 19.575 9.63757 19.7177 9.74294 19.823C9.84831 19.9282 9.99122 19.9873 10.1402 19.9873H15.4622V20.3061Z" stroke="#747F8B" stroke-width="0.3"/>
<path d="M16.0238 12.5385C16.3341 12.5385 16.5856 12.2872 16.5856 11.9772C16.5856 11.6673 16.3341 11.416 16.0238 11.416C15.7135 11.416 15.4619 11.6673 15.4619 11.9772C15.4619 12.2872 15.7135 12.5385 16.0238 12.5385Z" fill="url(#paint2_linear_193_3630)"/>
<path d="M16.0238 12.5385C16.3341 12.5385 16.5856 12.2872 16.5856 11.9772C16.5856 11.6673 16.3341 11.416 16.0238 11.416C15.7135 11.416 15.4619 11.6673 15.4619 11.9772C15.4619 12.2872 15.7135 12.5385 16.0238 12.5385Z" fill="#747F8B"/>
<path d="M16.0238 12.5385C16.3341 12.5385 16.5856 12.2872 16.5856 11.9772C16.5856 11.6673 16.3341 11.416 16.0238 11.416C15.7135 11.416 15.4619 11.6673 15.4619 11.9772C15.4619 12.2872 15.7135 12.5385 16.0238 12.5385Z" stroke="#747F8B" stroke-width="0.3"/>
<path d="M18.3031 12.5385C18.6134 12.5385 18.8649 12.2872 18.8649 11.9772C18.8649 11.6673 18.6134 11.416 18.3031 11.416C17.9928 11.416 17.7412 11.6673 17.7412 11.9772C17.7412 12.2872 17.9928 12.5385 18.3031 12.5385Z" fill="url(#paint3_linear_193_3630)"/>
<path d="M18.3031 12.5385C18.6134 12.5385 18.8649 12.2872 18.8649 11.9772C18.8649 11.6673 18.6134 11.416 18.3031 11.416C17.9928 11.416 17.7412 11.6673 17.7412 11.9772C17.7412 12.2872 17.9928 12.5385 18.3031 12.5385Z" fill="#747F8B"/>
<path d="M18.3031 12.5385C18.6134 12.5385 18.8649 12.2872 18.8649 11.9772C18.8649 11.6673 18.6134 11.416 18.3031 11.416C17.9928 11.416 17.7412 11.6673 17.7412 11.9772C17.7412 12.2872 17.9928 12.5385 18.3031 12.5385Z" stroke="#747F8B" stroke-width="0.3"/>
<path d="M13.7474 12.5385C14.0577 12.5385 14.3093 12.2872 14.3093 11.9772C14.3093 11.6673 14.0577 11.416 13.7474 11.416C13.4371 11.416 13.1855 11.6673 13.1855 11.9772C13.1855 12.2872 13.4371 12.5385 13.7474 12.5385Z" fill="url(#paint4_linear_193_3630)"/>
<path d="M13.7474 12.5385C14.0577 12.5385 14.3093 12.2872 14.3093 11.9772C14.3093 11.6673 14.0577 11.416 13.7474 11.416C13.4371 11.416 13.1855 11.6673 13.1855 11.9772C13.1855 12.2872 13.4371 12.5385 13.7474 12.5385Z" fill="#747F8B"/>
<path d="M13.7474 12.5385C14.0577 12.5385 14.3093 12.2872 14.3093 11.9772C14.3093 11.6673 14.0577 11.416 13.7474 11.416C13.4371 11.416 13.1855 11.6673 13.1855 11.9772C13.1855 12.2872 13.4371 12.5385 13.7474 12.5385Z" stroke="#747F8B" stroke-width="0.3"/>
<path d="M16.0238 14.8444C16.3341 14.8444 16.5856 14.5931 16.5856 14.2831C16.5856 13.9732 16.3341 13.7219 16.0238 13.7219C15.7135 13.7219 15.4619 13.9732 15.4619 14.2831C15.4619 14.5931 15.7135 14.8444 16.0238 14.8444Z" fill="url(#paint5_linear_193_3630)"/>
<path d="M16.0238 14.8444C16.3341 14.8444 16.5856 14.5931 16.5856 14.2831C16.5856 13.9732 16.3341 13.7219 16.0238 13.7219C15.7135 13.7219 15.4619 13.9732 15.4619 14.2831C15.4619 14.5931 15.7135 14.8444 16.0238 14.8444Z" fill="#747F8B"/>
<path d="M16.0238 14.8444C16.3341 14.8444 16.5856 14.5931 16.5856 14.2831C16.5856 13.9732 16.3341 13.7219 16.0238 13.7219C15.7135 13.7219 15.4619 13.9732 15.4619 14.2831C15.4619 14.5931 15.7135 14.8444 16.0238 14.8444Z" stroke="#747F8B" stroke-width="0.3"/>
<path d="M18.3031 14.8444C18.6134 14.8444 18.8649 14.5931 18.8649 14.2831C18.8649 13.9732 18.6134 13.7219 18.3031 13.7219C17.9928 13.7219 17.7412 13.9732 17.7412 14.2831C17.7412 14.5931 17.9928 14.8444 18.3031 14.8444Z" fill="url(#paint6_linear_193_3630)"/>
<path d="M18.3031 14.8444C18.6134 14.8444 18.8649 14.5931 18.8649 14.2831C18.8649 13.9732 18.6134 13.7219 18.3031 13.7219C17.9928 13.7219 17.7412 13.9732 17.7412 14.2831C17.7412 14.5931 17.9928 14.8444 18.3031 14.8444Z" fill="#747F8B"/>
<path d="M18.3031 14.8444C18.6134 14.8444 18.8649 14.5931 18.8649 14.2831C18.8649 13.9732 18.6134 13.7219 18.3031 13.7219C17.9928 13.7219 17.7412 13.9732 17.7412 14.2831C17.7412 14.5931 17.9928 14.8444 18.3031 14.8444Z" stroke="#747F8B" stroke-width="0.3"/>
<path d="M13.7474 14.8444C14.0577 14.8444 14.3093 14.5931 14.3093 14.2831C14.3093 13.9732 14.0577 13.7219 13.7474 13.7219C13.4371 13.7219 13.1855 13.9732 13.1855 14.2831C13.1855 14.5931 13.4371 14.8444 13.7474 14.8444Z" fill="url(#paint7_linear_193_3630)"/>
<path d="M13.7474 14.8444C14.0577 14.8444 14.3093 14.5931 14.3093 14.2831C14.3093 13.9732 14.0577 13.7219 13.7474 13.7219C13.4371 13.7219 13.1855 13.9732 13.1855 14.2831C13.1855 14.5931 13.4371 14.8444 13.7474 14.8444Z" fill="#747F8B"/>
<path d="M13.7474 14.8444C14.0577 14.8444 14.3093 14.5931 14.3093 14.2831C14.3093 13.9732 14.0577 13.7219 13.7474 13.7219C13.4371 13.7219 13.1855 13.9732 13.1855 14.2831C13.1855 14.5931 13.4371 14.8444 13.7474 14.8444Z" stroke="#747F8B" stroke-width="0.3"/>
<path d="M16.0238 17.1517C16.3341 17.1517 16.5856 16.9005 16.5856 16.5905C16.5856 16.2806 16.3341 16.0293 16.0238 16.0293C15.7135 16.0293 15.4619 16.2806 15.4619 16.5905C15.4619 16.9005 15.7135 17.1517 16.0238 17.1517Z" fill="url(#paint8_linear_193_3630)"/>
<path d="M16.0238 17.1517C16.3341 17.1517 16.5856 16.9005 16.5856 16.5905C16.5856 16.2806 16.3341 16.0293 16.0238 16.0293C15.7135 16.0293 15.4619 16.2806 15.4619 16.5905C15.4619 16.9005 15.7135 17.1517 16.0238 17.1517Z" fill="#747F8B"/>
<path d="M16.0238 17.1517C16.3341 17.1517 16.5856 16.9005 16.5856 16.5905C16.5856 16.2806 16.3341 16.0293 16.0238 16.0293C15.7135 16.0293 15.4619 16.2806 15.4619 16.5905C15.4619 16.9005 15.7135 17.1517 16.0238 17.1517Z" stroke="#747F8B" stroke-width="0.3"/>
<path d="M18.3031 17.1517C18.6134 17.1517 18.8649 16.9005 18.8649 16.5905C18.8649 16.2806 18.6134 16.0293 18.3031 16.0293C17.9928 16.0293 17.7412 16.2806 17.7412 16.5905C17.7412 16.9005 17.9928 17.1517 18.3031 17.1517Z" fill="url(#paint9_linear_193_3630)"/>
<path d="M18.3031 17.1517C18.6134 17.1517 18.8649 16.9005 18.8649 16.5905C18.8649 16.2806 18.6134 16.0293 18.3031 16.0293C17.9928 16.0293 17.7412 16.2806 17.7412 16.5905C17.7412 16.9005 17.9928 17.1517 18.3031 17.1517Z" fill="#747F8B"/>
<path d="M18.3031 17.1517C18.6134 17.1517 18.8649 16.9005 18.8649 16.5905C18.8649 16.2806 18.6134 16.0293 18.3031 16.0293C17.9928 16.0293 17.7412 16.2806 17.7412 16.5905C17.7412 16.9005 17.9928 17.1517 18.3031 17.1517Z" stroke="#747F8B" stroke-width="0.3"/>
<path d="M13.7474 17.1517C14.0577 17.1517 14.3093 16.9005 14.3093 16.5905C14.3093 16.2806 14.0577 16.0293 13.7474 16.0293C13.4371 16.0293 13.1855 16.2806 13.1855 16.5905C13.1855 16.9005 13.4371 17.1517 13.7474 17.1517Z" fill="url(#paint10_linear_193_3630)"/>
<path d="M13.7474 17.1517C14.0577 17.1517 14.3093 16.9005 14.3093 16.5905C14.3093 16.2806 14.0577 16.0293 13.7474 16.0293C13.4371 16.0293 13.1855 16.2806 13.1855 16.5905C13.1855 16.9005 13.4371 17.1517 13.7474 17.1517Z" fill="#747F8B"/>
<path d="M13.7474 17.1517C14.0577 17.1517 14.3093 16.9005 14.3093 16.5905C14.3093 16.2806 14.0577 16.0293 13.7474 16.0293C13.4371 16.0293 13.1855 16.2806 13.1855 16.5905C13.1855 16.9005 13.4371 17.1517 13.7474 17.1517Z" stroke="#747F8B" stroke-width="0.3"/>
<defs>
<linearGradient id="paint0_linear_193_3630" x1="12.5112" y1="6.14551" x2="18.3822" y2="11.0949" gradientUnits="userSpaceOnUse">
<stop stop-color="#FF4A1A"/>
<stop offset="1" stop-color="#FF7428"/>
</linearGradient>
<linearGradient id="paint1_linear_193_3630" x1="2" y1="1" x2="26.1838" y2="11.3135" gradientUnits="userSpaceOnUse">
<stop stop-color="#FF4A1A"/>
<stop offset="1" stop-color="#FF7428"/>
</linearGradient>
<linearGradient id="paint2_linear_193_3630" x1="15.4619" y1="11.416" x2="16.7776" y2="12.0339" gradientUnits="userSpaceOnUse">
<stop stop-color="#FF4A1A"/>
<stop offset="1" stop-color="#FF7428"/>
</linearGradient>
<linearGradient id="paint3_linear_193_3630" x1="17.7412" y1="11.416" x2="19.0569" y2="12.0339" gradientUnits="userSpaceOnUse">
<stop stop-color="#FF4A1A"/>
<stop offset="1" stop-color="#FF7428"/>
</linearGradient>
<linearGradient id="paint4_linear_193_3630" x1="13.1855" y1="11.416" x2="14.5013" y2="12.0339" gradientUnits="userSpaceOnUse">
<stop stop-color="#FF4A1A"/>
<stop offset="1" stop-color="#FF7428"/>
</linearGradient>
<linearGradient id="paint5_linear_193_3630" x1="15.4619" y1="13.7219" x2="16.7776" y2="14.3398" gradientUnits="userSpaceOnUse">
<stop stop-color="#FF4A1A"/>
<stop offset="1" stop-color="#FF7428"/>
</linearGradient>
<linearGradient id="paint6_linear_193_3630" x1="17.7412" y1="13.7219" x2="19.0569" y2="14.3398" gradientUnits="userSpaceOnUse">
<stop stop-color="#FF4A1A"/>
<stop offset="1" stop-color="#FF7428"/>
</linearGradient>
<linearGradient id="paint7_linear_193_3630" x1="13.1855" y1="13.7219" x2="14.5013" y2="14.3398" gradientUnits="userSpaceOnUse">
<stop stop-color="#FF4A1A"/>
<stop offset="1" stop-color="#FF7428"/>
</linearGradient>
<linearGradient id="paint8_linear_193_3630" x1="15.4619" y1="16.0293" x2="16.7776" y2="16.6472" gradientUnits="userSpaceOnUse">
<stop stop-color="#FF4A1A"/>
<stop offset="1" stop-color="#FF7428"/>
</linearGradient>
<linearGradient id="paint9_linear_193_3630" x1="17.7412" y1="16.0293" x2="19.0569" y2="16.6472" gradientUnits="userSpaceOnUse">
<stop stop-color="#FF4A1A"/>
<stop offset="1" stop-color="#FF7428"/>
</linearGradient>
<linearGradient id="paint10_linear_193_3630" x1="13.1855" y1="16.0293" x2="14.5013" y2="16.6472" gradientUnits="userSpaceOnUse">
<stop stop-color="#FF4A1A"/>
<stop offset="1" stop-color="#FF7428"/>
</linearGradient>
</defs>
</svg>
