<svg width="24" height="24" viewBox="0 0 24 24" fill="none" xmlns="http://www.w3.org/2000/svg">
<path fill-rule="evenodd" clip-rule="evenodd" d="M7.74509 2.6665C6.66273 2.6665 5.7843 3.41458 5.7843 4.33334V19.6662C5.7843 20.5863 6.66273 21.333 7.74509 21.333H15.5882C16.6706 21.333 17.549 20.5863 17.549 19.6662V4.33334C17.549 3.41458 16.6706 2.6665 15.5882 2.6665H7.74509ZM15.5882 22H7.7451C6.23137 22 5 20.9532 5 19.6664V4.33357C5 3.04677 6.23137 2 7.7451 2H15.5882C17.102 2 18.3333 3.04677 18.3333 4.33357V19.6664C18.3333 20.9532 17.102 22 15.5882 22Z" fill="url(#paint0_linear_193_3648)"/>
<path fill-rule="evenodd" clip-rule="evenodd" d="M7.74509 2.6665C6.66273 2.6665 5.7843 3.41458 5.7843 4.33334V19.6662C5.7843 20.5863 6.66273 21.333 7.74509 21.333H15.5882C16.6706 21.333 17.549 20.5863 17.549 19.6662V4.33334C17.549 3.41458 16.6706 2.6665 15.5882 2.6665H7.74509ZM15.5882 22H7.7451C6.23137 22 5 20.9532 5 19.6664V4.33357C5 3.04677 6.23137 2 7.7451 2H15.5882C17.102 2 18.3333 3.04677 18.3333 4.33357V19.6664C18.3333 20.9532 17.102 22 15.5882 22Z" fill="#FF4A1A"/>
<path fill-rule="evenodd" clip-rule="evenodd" d="M7.74509 2.6665C6.66273 2.6665 5.7843 3.41458 5.7843 4.33334V19.6662C5.7843 20.5863 6.66273 21.333 7.74509 21.333H15.5882C16.6706 21.333 17.549 20.5863 17.549 19.6662V4.33334C17.549 3.41458 16.6706 2.6665 15.5882 2.6665H7.74509ZM15.5882 22H7.7451C6.23137 22 5 20.9532 5 19.6664V4.33357C5 3.04677 6.23137 2 7.7451 2H15.5882C17.102 2 18.3333 3.04677 18.3333 4.33357V19.6664C18.3333 20.9532 17.102 22 15.5882 22Z" fill="#747F8B"/>
<path d="M7.74509 2.2165C6.48526 2.2165 5.3343 3.1005 5.3343 4.33334H6.2343C6.2343 3.72866 6.84021 3.1165 7.74509 3.1165V2.2165ZM5.3343 4.33334V19.6662H6.2343V4.33334H5.3343ZM5.3343 19.6662C5.3343 20.9006 6.48551 21.783 7.74509 21.783V20.883C6.83996 20.883 6.2343 20.272 6.2343 19.6662H5.3343ZM7.74509 21.783H15.5882V20.883H7.74509V21.783ZM15.5882 21.783C16.8478 21.783 17.999 20.9006 17.999 19.6662H17.099C17.099 20.272 16.4934 20.883 15.5882 20.883V21.783ZM17.999 19.6662V4.33334H17.099V19.6662H17.999ZM17.999 4.33334C17.999 3.1005 16.848 2.2165 15.5882 2.2165V3.1165C16.4931 3.1165 17.099 3.72866 17.099 4.33334H17.999ZM15.5882 2.2165H7.74509V3.1165H15.5882V2.2165ZM15.5882 21.55H7.7451V22.45H15.5882V21.55ZM7.7451 21.55C6.4086 21.55 5.45 20.6389 5.45 19.6664H4.55C4.55 21.2675 6.05415 22.45 7.7451 22.45V21.55ZM5.45 19.6664V4.33357H4.55V19.6664H5.45ZM5.45 4.33357C5.45 3.36106 6.4086 2.45 7.7451 2.45V1.55C6.05415 1.55 4.55 2.73248 4.55 4.33357H5.45ZM7.7451 2.45H15.5882V1.55H7.7451V2.45ZM15.5882 2.45C16.9247 2.45 17.8833 3.36106 17.8833 4.33357H18.7833C18.7833 2.73248 17.2792 1.55 15.5882 1.55V2.45ZM17.8833 4.33357V19.6664H18.7833V4.33357H17.8833ZM17.8833 19.6664C17.8833 20.6389 16.9247 21.55 15.5882 21.55V22.45C17.2792 22.45 18.7833 21.2675 18.7833 19.6664H17.8833Z" fill="#747F8B"/>
<path fill-rule="evenodd" clip-rule="evenodd" d="M14.2943 5.26923H8.64722C8.47154 5.26923 8.3335 5.1 8.3335 4.88462C8.3335 4.67692 8.47154 4.5 8.64722 4.5H14.2943C14.47 4.5 14.608 4.67692 14.608 4.88462C14.608 5.1 14.47 5.26923 14.2943 5.26923Z" fill="url(#paint1_linear_193_3648)"/>
<path fill-rule="evenodd" clip-rule="evenodd" d="M14.2943 5.26923H8.64722C8.47154 5.26923 8.3335 5.1 8.3335 4.88462C8.3335 4.67692 8.47154 4.5 8.64722 4.5H14.2943C14.47 4.5 14.608 4.67692 14.608 4.88462C14.608 5.1 14.47 5.26923 14.2943 5.26923Z" fill="#FF4A1A"/>
<path fill-rule="evenodd" clip-rule="evenodd" d="M14.2943 5.26923H8.64722C8.47154 5.26923 8.3335 5.1 8.3335 4.88462C8.3335 4.67692 8.47154 4.5 8.64722 4.5H14.2943C14.47 4.5 14.608 4.67692 14.608 4.88462C14.608 5.1 14.47 5.26923 14.2943 5.26923Z" fill="#747F8B"/>
<path d="M14.2943 5.26923H8.64722C8.47154 5.26923 8.3335 5.1 8.3335 4.88462C8.3335 4.67692 8.47154 4.5 8.64722 4.5H14.2943C14.47 4.5 14.608 4.67692 14.608 4.88462C14.608 5.1 14.47 5.26923 14.2943 5.26923" stroke="#747F8B" stroke-width="0.9"/>
<path fill-rule="evenodd" clip-rule="evenodd" d="M11.6666 18.923C11.2353 18.923 10.8823 18.5768 10.8823 18.1538C10.8823 17.7307 11.2353 17.3845 11.6666 17.3845C12.098 17.3845 12.451 17.7307 12.451 18.1538C12.451 18.5768 12.098 18.923 11.6666 18.923Z" fill="url(#paint2_linear_193_3648)"/>
<path fill-rule="evenodd" clip-rule="evenodd" d="M11.6666 18.923C11.2353 18.923 10.8823 18.5768 10.8823 18.1538C10.8823 17.7307 11.2353 17.3845 11.6666 17.3845C12.098 17.3845 12.451 17.7307 12.451 18.1538C12.451 18.5768 12.098 18.923 11.6666 18.923Z" fill="#FF4A1A"/>
<path fill-rule="evenodd" clip-rule="evenodd" d="M11.6666 18.923C11.2353 18.923 10.8823 18.5768 10.8823 18.1538C10.8823 17.7307 11.2353 17.3845 11.6666 17.3845C12.098 17.3845 12.451 17.7307 12.451 18.1538C12.451 18.5768 12.098 18.923 11.6666 18.923Z" fill="#747F8B"/>
<path d="M11.6666 18.923C11.2353 18.923 10.8823 18.5768 10.8823 18.1538C10.8823 17.7307 11.2353 17.3845 11.6666 17.3845C12.098 17.3845 12.451 17.7307 12.451 18.1538C12.451 18.5768 12.098 18.923 11.6666 18.923" stroke="#747F8B" stroke-width="0.9"/>
<defs>
<linearGradient id="paint0_linear_193_3648" x1="5" y1="2" x2="22.3571" y2="7.42825" gradientUnits="userSpaceOnUse">
<stop stop-color="#FF4A1A"/>
<stop offset="1" stop-color="#FF7428"/>
</linearGradient>
<linearGradient id="paint1_linear_193_3648" x1="8.3335" y1="4.5" x2="8.90677" y2="6.6936" gradientUnits="userSpaceOnUse">
<stop stop-color="#FF4A1A"/>
<stop offset="1" stop-color="#FF7428"/>
</linearGradient>
<linearGradient id="paint2_linear_193_3648" x1="10.8823" y1="17.3845" x2="12.7067" y2="18.2571" gradientUnits="userSpaceOnUse">
<stop stop-color="#FF4A1A"/>
<stop offset="1" stop-color="#FF7428"/>
</linearGradient>
</defs>
</svg>
