<svg width="198" height="243" viewBox="0 0 198 243" fill="none" xmlns="http://www.w3.org/2000/svg">
<g style="mix-blend-mode:multiply">
<g style="mix-blend-mode:multiply">
<path d="M157.172 220.079C157.172 227.166 133.909 232.939 105.241 232.939C76.5739 232.939 53.2815 227.107 53.2815 220.079C53.2815 213.051 76.5445 207.219 105.241 207.219C133.938 207.219 157.172 212.877 157.172 220.079Z" fill="#E6CFB9"/>
</g>
</g>
<g style="mix-blend-mode:multiply">
<g style="mix-blend-mode:multiply">
<path d="M100.895 220.08C100.895 224.396 86.737 227.895 69.2604 227.895C51.7838 227.895 37.6262 224.541 37.6262 220.08C37.6262 215.618 51.7838 212.235 69.2604 212.235C86.737 212.235 100.895 215.793 100.895 220.08Z" fill="#E6CFB9"/>
</g>
</g>
<g style="mix-blend-mode:multiply">
<g style="mix-blend-mode:multiply">
<path d="M26.4352 217.892C26.4352 220.4 20.5607 222.441 13.2176 222.441C5.8745 222.441 0 220.4 0 217.892C0 215.384 5.8745 213.372 13.2176 213.372C20.5607 213.372 26.4352 215.384 26.4352 217.892Z" fill="#E6CFB9"/>
</g>
</g>
<g style="mix-blend-mode:multiply">
<g style="mix-blend-mode:multiply">
<path d="M179.172 235.623C179.172 238.743 171.77 241.28 162.636 241.28C153.501 241.28 146.128 238.743 146.128 235.623C146.128 232.503 153.53 229.791 162.636 229.791C171.741 229.791 179.172 232.473 179.172 235.623Z" fill="#E6CFB9"/>
</g>
</g>
<g style="mix-blend-mode:multiply">
<g style="mix-blend-mode:multiply">
<path d="M198 240.259C198 241.776 194.387 243.001 189.952 243.001C185.517 243.001 181.904 241.776 181.904 240.259C181.904 238.743 185.487 237.343 189.952 237.343C194.417 237.343 198 238.714 198 240.259Z" fill="#E6CFB9"/>
</g>
</g>
<path d="M80.9801 191.006C80.7865 191.047 80.5863 191.047 80.3927 191.006C71.5279 187.44 64.3577 180.665 60.3312 172.051C57.4114 166.373 56.3513 159.932 57.2993 153.626C58.2472 147.321 61.1557 141.467 65.6183 136.883L66.2939 136.3L78.7184 142.832L78.5716 143.736C77.8643 149.031 79.1736 154.397 82.2431 158.783C83.8376 160.05 85.596 161.1 87.4714 161.903L88.2057 162.253V163.099C88.0942 168.064 87.2124 172.982 85.5916 177.679C84.5538 180.269 83.8243 182.97 83.418 185.728C82.7718 189.548 82.4781 191.006 80.9801 191.006ZM66.7051 139.216C62.8193 143.427 60.341 148.728 59.6101 154.393C58.8791 160.058 59.9313 165.808 62.6223 170.856C66.1893 178.606 72.5346 184.76 80.422 188.119C80.5983 187.361 80.8332 186.195 81.0388 185.203C81.4647 182.201 82.2638 179.262 83.418 176.455C84.8213 172.364 85.6033 168.089 85.7384 163.77C83.7973 162.912 81.9957 161.772 80.3927 160.387C76.9159 155.694 75.3338 149.879 75.9574 144.086L66.7051 139.216Z" fill="#4D2F4F"/>
<path d="M61.4769 171.381C65.3613 179.743 72.3172 186.315 80.9215 189.753C81.9202 190.19 82.4782 181.15 84.5637 177.038C86.0665 172.516 86.8977 167.801 87.031 163.041C85.0104 162.122 83.1074 160.966 81.3621 159.6C77.9851 154.904 76.5453 149.103 77.338 143.386L66.4702 137.554C62.1576 141.953 59.3533 147.591 58.4567 153.665C57.5601 159.739 58.617 165.939 61.4769 171.381Z" fill="#BFC2D1"/>
<g style="mix-blend-mode:multiply">
<g style="mix-blend-mode:multiply">
<path d="M71.6396 176.192C68.868 170.836 67.8346 164.759 68.6813 158.796C69.5281 152.833 72.2134 147.277 76.3685 142.89L66.47 137.641C62.183 142.031 59.3944 147.648 58.4984 153.697C57.6023 159.746 58.6442 165.922 61.4767 171.351C65.3611 179.713 72.317 186.285 80.9213 189.723C81.1269 189.723 81.3325 189.49 81.5087 188.906C77.2803 185.476 73.9035 181.126 71.6396 176.192Z" fill="#BFC2D1"/>
</g>
</g>
<path d="M116.315 218.942C115.321 219.04 114.318 218.906 113.385 218.552C112.452 218.197 111.615 217.632 110.94 216.901C110.059 215.618 109.647 218.126 108.825 218.038C108.002 217.951 106.916 214.801 106.358 212.585C104.834 205.189 104.125 197.65 104.243 190.102C104.243 188.789 104.86 177.038 105.447 175.055C106.475 171.555 111.88 168.552 121.484 166.131C126.031 165.012 130.641 164.165 135.29 163.594H136.083L136.259 164.382C136.935 166.762 137.066 169.264 136.641 171.701C136.347 172.518 136.024 173.305 135.73 174.063C134.136 177.184 133.571 180.724 134.115 184.182C135.01 188.219 134.735 192.425 133.322 196.313C132.858 197.391 132.297 198.426 131.647 199.404C129.644 202.098 128.461 205.307 128.24 208.648C128.344 209.82 128.196 211.001 127.806 212.112C127.416 213.223 126.793 214.239 125.978 215.093C123.387 217.579 119.919 218.96 116.315 218.942ZM134.673 165.49C126.86 166.481 108.854 169.951 107.18 175.579C106.798 176.921 106.299 185.057 106.064 190.16C105.969 197.531 106.658 204.891 108.12 212.118C108.502 213.547 108.649 213.576 109.119 213.635C109.792 213.723 110.437 213.961 111.007 214.329C111.576 214.697 112.055 215.187 112.408 215.764C112.922 216.256 113.538 216.631 114.212 216.863C114.887 217.094 115.605 217.177 116.315 217.105C119.428 217.088 122.411 215.864 124.627 213.693C125.254 213.026 125.728 212.233 126.017 211.367C126.306 210.501 126.403 209.584 126.302 208.677C126.488 204.918 127.808 201.301 130.091 198.296C130.672 197.363 131.183 196.388 131.618 195.38C132.913 191.768 133.157 187.867 132.323 184.124C131.718 180.344 132.314 176.471 134.027 173.042L134.908 170.768C135.192 169.011 135.112 167.215 134.673 165.49Z" fill="#4D2F4F"/>
<path d="M111.615 216.347C109.06 213.023 108.179 216.172 107.18 212.352C105.7 205.048 105.001 197.61 105.095 190.16C105.095 190.16 105.682 177.242 106.24 175.317C108.531 167.619 135.319 164.499 135.319 164.499C135.927 166.702 136.057 169.007 135.701 171.264C134.232 175.405 132.206 178.408 133.145 184.182C134.024 188.061 133.769 192.107 132.411 195.847C131.442 198.471 126.889 203.662 127.271 208.59C128.035 217.193 114.729 220.284 111.615 216.347Z" fill="#BFC2D1"/>
<path d="M111.615 216.347C109.06 213.023 108.179 216.172 107.18 212.352C105.7 205.048 105.001 197.61 105.095 190.16C105.095 190.16 105.682 177.242 106.24 175.317C108.531 167.619 135.319 164.499 135.319 164.499C135.927 166.702 136.057 169.007 135.701 171.264C134.232 175.405 132.206 178.408 133.145 184.182C134.024 188.061 133.769 192.107 132.411 195.847C131.442 198.471 126.889 203.662 127.271 208.59C128.035 217.193 114.729 220.284 111.615 216.347Z" fill="#BFC2D1"/>
<g style="mix-blend-mode:multiply">
<g style="mix-blend-mode:multiply">
<path d="M111.615 216.347C109.06 213.023 108.179 216.172 107.18 212.352C105.7 205.048 105.001 197.61 105.095 190.16C105.095 190.16 105.682 177.242 106.24 175.317C108.531 167.619 135.319 164.499 135.319 164.499C135.927 166.702 136.057 169.007 135.701 171.264C134.232 175.405 132.206 178.408 133.145 184.182C134.024 188.061 133.769 192.107 132.411 195.847C131.442 198.471 126.889 203.662 127.271 208.59C128.035 217.193 114.729 220.284 111.615 216.347Z" fill="#BFC2D1"/>
</g>
</g>
<path d="M90.2323 216.259C86.6851 216.268 83.2732 214.909 80.7156 212.468C79.9025 211.645 79.2711 210.662 78.8614 209.582C78.4518 208.503 78.273 207.351 78.3364 206.199C78.0359 202.866 76.7596 199.693 74.6648 197.071C73.1325 194.889 72.0791 192.412 71.5731 189.799C71.0671 187.187 71.1197 184.498 71.7276 181.908C72.1704 178.432 71.5135 174.906 69.8478 171.818C69.5247 171.089 69.1722 170.301 68.8491 169.485C68.3621 167.063 68.4122 164.566 68.996 162.165L69.1722 161.407H69.9946C74.6537 161.862 79.2826 162.583 83.8584 163.565C93.522 165.694 99.0146 168.552 100.131 172.051C100.777 174.005 101.658 185.728 101.776 187.069C102.083 194.604 101.591 202.149 100.307 209.582C99.7783 211.798 99.9252 216.289 98.7209 216.522C98.1628 216.522 96.7823 212.702 95.7837 214.014C95.0934 214.785 94.2338 215.389 93.2713 215.778C92.3088 216.168 91.269 216.332 90.2323 216.259ZM70.6996 163.303C70.3194 165.111 70.3194 166.977 70.6996 168.785C71.0227 169.572 71.3458 170.301 71.6689 171.03C73.4772 174.418 74.1851 178.279 73.6956 182.083C72.9662 185.834 73.3122 189.714 74.6942 193.28C75.1598 194.291 75.6998 195.265 76.3097 196.197C78.6095 199.126 79.9796 202.669 80.2456 206.374C80.1988 207.28 80.3417 208.185 80.6653 209.033C80.9888 209.882 81.486 210.654 82.1255 211.302C84.3301 213.397 87.269 214.557 90.3204 214.539C91.0811 214.619 91.8503 214.53 92.5718 214.278C93.2934 214.026 93.9492 213.617 94.4913 213.081C94.8307 212.497 95.2967 211.995 95.8555 211.612C96.4143 211.228 97.0519 210.973 97.7223 210.865C98.1628 210.865 98.3391 210.865 98.6622 209.319C99.9075 202.069 100.39 194.71 100.101 187.361C99.7196 182.199 98.9853 174.063 98.5447 172.78C96.6355 167.094 78.542 164.148 70.6996 163.303Z" fill="#4D2F4F"/>
<path d="M95.1373 213.547C97.6046 210.165 98.5739 213.285 99.4551 209.436C100.735 202.091 101.227 194.633 100.924 187.186C100.924 187.186 99.9544 174.297 99.3376 172.372C96.8409 164.761 69.9651 162.37 69.9651 162.37C69.4332 164.587 69.3633 166.89 69.7595 169.135C71.375 173.247 73.4604 176.192 72.6967 181.995C71.9438 185.905 72.3101 189.946 73.7542 193.66C74.8116 196.226 79.6287 201.3 79.2468 206.228C78.8356 214.86 92.2001 217.572 95.1373 213.547Z" fill="#BFC2D1"/>
<g style="mix-blend-mode:multiply">
<g style="mix-blend-mode:multiply">
<path d="M99.3378 172.372C96.8412 164.761 69.9653 162.37 69.9653 162.37C79.8345 162.37 91.0842 176.775 92.7584 188.615C94.2858 199.317 87.207 203.37 79.3058 207.132C80.0695 214.831 92.3765 217.134 95.1669 213.285C97.6342 209.902 98.6035 213.023 99.4847 209.173C100.764 201.829 101.257 194.371 100.953 186.923C100.953 186.923 99.8665 174.297 99.3378 172.372Z" fill="#BFC2D1"/>
</g>
</g>
<path d="M129.034 213.752C129.039 214.813 129.362 215.849 129.961 216.728C130.559 217.607 131.407 218.29 132.397 218.691C133.387 219.092 134.474 219.192 135.521 218.979C136.568 218.767 137.529 218.25 138.28 217.496C139.032 216.742 139.541 215.783 139.744 214.741C139.947 213.699 139.834 212.621 139.42 211.642C139.005 210.664 138.308 209.83 137.416 209.245C136.524 208.66 135.478 208.351 134.409 208.357C133.698 208.357 132.994 208.497 132.338 208.769C131.682 209.041 131.087 209.439 130.587 209.941C130.087 210.442 129.692 211.038 129.426 211.692C129.159 212.346 129.026 213.046 129.034 213.752Z" fill="#BFC2D1"/>
<path d="M128.563 213.751C128.563 212.598 128.908 211.47 129.554 210.511C130.199 209.552 131.116 208.804 132.19 208.363C133.263 207.921 134.444 207.806 135.584 208.031C136.724 208.256 137.77 208.812 138.592 209.627C139.413 210.443 139.973 211.482 140.2 212.613C140.426 213.745 140.31 214.917 139.865 215.983C139.421 217.049 138.668 217.96 137.702 218.6C136.736 219.241 135.6 219.583 134.438 219.583C132.88 219.583 131.386 218.969 130.284 217.875C129.182 216.781 128.563 215.298 128.563 213.751ZM129.533 213.751C129.521 214.4 129.64 215.046 129.883 215.648C130.126 216.251 130.488 216.8 130.948 217.262C131.408 217.724 131.956 218.09 132.561 218.338C133.165 218.587 133.813 218.713 134.467 218.709C135.699 218.614 136.849 218.061 137.688 217.161C138.527 216.261 138.993 215.08 138.993 213.853C138.993 212.627 138.527 211.446 137.688 210.546C136.849 209.645 135.699 209.093 134.467 208.998C133.186 208.99 131.953 209.479 131.031 210.362C130.109 211.245 129.571 212.451 129.533 213.722V213.751Z" fill="#4D2F4F"/>
<path d="M123.746 213.577C123.752 214.905 124.155 216.201 124.903 217.301C125.652 218.401 126.712 219.256 127.951 219.758C129.189 220.259 130.55 220.384 131.86 220.118C133.17 219.851 134.371 219.204 135.31 218.259C136.25 217.314 136.885 216.113 137.137 214.809C137.389 213.505 137.245 212.156 136.724 210.934C136.202 209.711 135.327 208.669 134.209 207.94C133.091 207.212 131.781 206.829 130.443 206.841C129.557 206.844 128.681 207.022 127.865 207.363C127.048 207.704 126.307 208.201 125.685 208.827C125.063 209.453 124.571 210.195 124.239 211.01C123.906 211.825 123.739 212.697 123.746 213.577Z" fill="#BFC2D1"/>
<path d="M130.531 220.721C132.086 220.705 133.595 220.195 134.837 219.266C136.079 218.337 136.989 217.038 137.434 215.559C137.451 215.496 137.456 215.43 137.448 215.365C137.439 215.3 137.418 215.238 137.385 215.181C137.353 215.124 137.309 215.074 137.257 215.034C137.205 214.994 137.145 214.964 137.081 214.947C137.018 214.93 136.951 214.925 136.886 214.933C136.82 214.942 136.757 214.963 136.7 214.995C136.643 215.028 136.592 215.071 136.552 215.123C136.512 215.174 136.482 215.234 136.465 215.297C136.133 216.392 135.502 217.374 134.642 218.135C133.782 218.895 132.726 219.404 131.592 219.604C130.458 219.805 129.29 219.689 128.218 219.27C127.147 218.85 126.213 218.144 125.522 217.23C124.83 216.316 124.407 215.229 124.301 214.09C124.194 212.951 124.408 211.806 124.918 210.78C125.428 209.755 126.214 208.89 127.19 208.282C128.165 207.674 129.291 207.346 130.443 207.336C131.999 207.359 133.497 207.927 134.673 208.94C134.765 209.024 134.886 209.07 135.011 209.07C135.136 209.07 135.256 209.024 135.348 208.94C135.398 208.896 135.438 208.842 135.466 208.782C135.493 208.721 135.508 208.656 135.508 208.59C135.508 208.524 135.493 208.458 135.466 208.398C135.438 208.338 135.398 208.284 135.348 208.24C134 207.041 132.254 206.377 130.443 206.374C128.527 206.374 126.689 207.129 125.334 208.475C123.979 209.82 123.218 211.645 123.218 213.547C123.218 215.45 123.979 217.274 125.334 218.62C126.689 219.965 128.527 220.721 130.443 220.721H130.531Z" fill="#4D2F4F"/>
<path d="M107.592 214.189C107.592 221.509 119.106 221.45 123.159 221.421C124.993 221.258 126.699 220.419 127.942 219.07C129.185 217.721 129.874 215.959 129.874 214.131C129.874 212.303 129.185 210.541 127.942 209.191C126.699 207.842 124.993 207.004 123.159 206.841C119.017 206.811 107.592 210.136 107.592 214.189Z" fill="#BFC2D1"/>
<g style="mix-blend-mode:multiply">
<g style="mix-blend-mode:multiply">
<path d="M123.042 217.222C124.47 217.384 125.916 217.158 127.225 216.567C128.534 215.976 129.657 215.043 130.473 213.868C131.176 214.79 132.195 215.424 133.337 215.649C134.479 215.875 135.665 215.677 136.67 215.093C138.374 215.618 139.431 213.839 139.343 211.943C139.557 212.492 139.667 213.075 139.666 213.664C139.674 214.366 139.542 215.062 139.276 215.713C139.011 216.363 138.619 216.955 138.122 217.454C137.624 217.954 137.032 218.35 136.38 218.62C135.728 218.89 135.028 219.03 134.321 219.03H134.174C133.055 219.783 131.736 220.189 130.385 220.196C129.467 220.206 128.557 220.027 127.712 219.671C126.397 220.774 124.733 221.383 123.012 221.392C118.959 221.392 107.504 221.392 107.445 214.16C107.459 213.693 107.601 213.24 107.856 212.847C109.119 215.938 113.496 217.28 123.042 217.222Z" fill="#BFC2D1"/>
</g>
</g>
<path d="M137.081 214.946C136.953 214.918 136.819 214.939 136.705 215.003C136.591 215.068 136.505 215.172 136.465 215.296C136.089 216.56 135.317 217.672 134.26 218.47C133.203 219.267 131.917 219.708 130.59 219.729C129.869 219.742 129.153 219.623 128.475 219.379C128.292 219.707 128.002 219.964 127.653 220.108C128.576 220.519 129.578 220.728 130.59 220.72C132.145 220.704 133.654 220.194 134.896 219.266C136.138 218.337 137.048 217.038 137.493 215.559C137.519 215.424 137.49 215.284 137.413 215.169C137.336 215.055 137.217 214.975 137.081 214.946Z" fill="#4D2F4F"/>
<path d="M139.314 210.485C139.344 210.707 139.323 210.933 139.252 211.145C139.181 211.358 139.061 211.551 138.902 211.71C139.174 212.336 139.314 213.011 139.314 213.693C139.341 214.342 139.237 214.99 139.006 215.597C138.774 216.205 138.422 216.759 137.969 217.228C137.516 217.697 136.972 218.07 136.371 218.324C135.769 218.578 135.121 218.709 134.467 218.709C134.43 218.904 134.353 219.09 134.242 219.255C134.131 219.42 133.988 219.562 133.821 219.671H134.467C136.025 219.671 137.519 219.057 138.621 217.963C139.723 216.869 140.342 215.386 140.342 213.839C140.354 212.643 139.995 211.472 139.314 210.485Z" fill="#4D2F4F"/>
<path d="M123.159 221.917C125.242 221.902 127.233 221.068 128.698 219.597C130.162 218.127 130.98 216.141 130.972 214.073C130.972 213.942 130.919 213.815 130.826 213.722C130.732 213.629 130.605 213.577 130.473 213.577C130.345 213.585 130.226 213.64 130.138 213.732C130.051 213.825 130.003 213.946 130.003 214.073C130.003 215.88 129.284 217.615 128.002 218.898C126.72 220.182 124.979 220.911 123.159 220.926C116.697 220.926 108.12 220.284 108.091 214.19C108.091 210.69 118.988 207.308 123.1 207.278C124.363 207.283 125.601 207.626 126.684 208.27C126.727 208.315 126.78 208.351 126.838 208.375C126.896 208.4 126.958 208.412 127.021 208.412C127.084 208.412 127.147 208.4 127.205 208.375C127.263 208.351 127.315 208.315 127.359 208.27C127.444 208.178 127.491 208.059 127.491 207.935C127.491 207.81 127.444 207.691 127.359 207.599C126.12 206.853 124.697 206.459 123.247 206.462C119.37 206.462 107.239 209.757 107.268 214.335C107.151 221.976 119.194 221.917 123.159 221.917Z" fill="#4D2F4F"/>
<path d="M78.0134 213.11C78.0681 213.845 77.9694 214.585 77.7234 215.281C77.4773 215.977 77.0892 216.616 76.5834 217.156C76.0775 217.697 75.4648 218.128 74.7834 218.423C74.1021 218.718 73.3668 218.87 72.6235 218.87C71.8803 218.87 71.145 218.718 70.4636 218.423C69.7823 218.128 69.1695 217.697 68.6637 217.156C68.1578 216.616 67.7698 215.977 67.5237 215.281C67.2777 214.585 67.1789 213.845 67.2337 213.11C67.3342 211.759 67.9457 210.495 68.9454 209.573C69.9451 208.652 71.2591 208.139 72.6235 208.139C73.988 208.139 75.3019 208.652 76.3017 209.573C77.3014 210.495 77.9129 211.759 78.0134 213.11Z" fill="#BFC2D1"/>
<path d="M72.5793 218.912C71.4175 218.912 70.2817 218.57 69.3156 217.93C68.3496 217.289 67.5966 216.378 67.152 215.312C66.7074 214.246 66.591 213.074 66.8177 211.942C67.0444 210.811 67.6039 209.772 68.4254 208.956C69.247 208.141 70.2937 207.585 71.4333 207.36C72.5728 207.135 73.754 207.251 74.8274 207.692C75.9008 208.133 76.8183 208.881 77.4638 209.84C78.1093 210.799 78.4538 211.927 78.4538 213.08C78.4538 214.627 77.8349 216.111 76.7332 217.204C75.6316 218.298 74.1373 218.912 72.5793 218.912ZM72.5793 208.21C71.6092 208.205 70.6591 208.485 69.8493 209.015C69.0394 209.545 68.4061 210.302 68.0295 211.19C67.6529 212.077 67.5499 213.056 67.7335 214.002C67.917 214.947 68.379 215.818 69.0608 216.503C69.7427 217.188 70.6139 217.657 71.5643 217.851C72.5146 218.044 73.5015 217.954 74.4 217.59C75.2985 217.227 76.0683 216.608 76.6122 215.81C77.156 215.012 77.4493 214.073 77.4552 213.109C77.4629 212.474 77.3445 211.843 77.1066 211.252C76.8687 210.662 76.516 210.124 76.0687 209.669C75.6214 209.214 75.0882 208.851 74.4996 208.601C73.9109 208.351 73.2784 208.218 72.6381 208.21H72.5793Z" fill="#4D2F4F"/>
<path d="M83.3004 212.877C83.3004 214.206 82.9026 215.505 82.1577 216.61C81.4127 217.714 80.3541 218.573 79.1163 219.079C77.8784 219.585 76.5171 219.714 75.205 219.451C73.893 219.187 72.6894 218.543 71.7469 217.599C70.8045 216.655 70.1658 215.454 69.9118 214.15C69.6578 212.845 69.8 211.494 70.3203 210.27C70.8407 209.045 71.7157 208.002 72.8344 207.272C73.953 206.542 75.2649 206.159 76.6035 206.17C78.3826 206.193 80.0815 206.909 81.3341 208.163C82.5867 209.418 83.2929 211.111 83.3004 212.877Z" fill="#BFC2D1"/>
<path d="M76.5153 220.08C74.9643 220.066 73.4584 219.56 72.2169 218.637C70.9754 217.714 70.0631 216.421 69.6128 214.948C69.5845 214.821 69.6048 214.687 69.67 214.574C69.7352 214.461 69.8404 214.376 69.9653 214.335C70.0268 214.313 70.0925 214.304 70.1579 214.308C70.2234 214.312 70.2872 214.33 70.3453 214.36C70.4034 214.39 70.4545 214.432 70.4952 214.483C70.536 214.534 70.5656 214.593 70.5821 214.656C70.9105 215.76 71.5429 216.752 72.4082 217.518C73.2734 218.285 74.3371 218.796 75.4794 218.995C76.6217 219.194 77.7972 219.072 78.8735 218.643C79.9497 218.214 80.884 217.496 81.571 216.568C82.258 215.64 82.6704 214.541 82.7618 213.393C82.8532 212.245 82.62 211.095 82.0883 210.072C81.5567 209.048 80.7478 208.193 79.7528 207.602C78.7578 207.01 77.6162 206.706 76.4566 206.724C74.9037 206.737 73.4055 207.295 72.227 208.299C72.1374 208.388 72.0159 208.438 71.8892 208.438C71.7625 208.438 71.641 208.388 71.5514 208.299C71.4618 208.21 71.4115 208.09 71.4115 207.964C71.4115 207.838 71.4618 207.717 71.5514 207.628C72.9044 206.433 74.6454 205.76 76.4566 205.733C78.373 205.733 80.2108 206.489 81.5659 207.834C82.921 209.179 83.6822 211.004 83.6822 212.907C83.6822 214.809 82.921 216.634 81.5659 217.979C80.2108 219.324 78.373 220.08 76.4566 220.08H76.5153Z" fill="#4D2F4F"/>
<path d="M99.4549 213.547C99.4549 220.867 87.9408 220.808 83.8874 220.779C82.0533 220.616 80.347 219.778 79.1042 218.428C77.8615 217.079 77.1724 215.317 77.1724 213.489C77.1724 211.661 77.8615 209.899 79.1042 208.55C80.347 207.2 82.0533 206.362 83.8874 206.199C88.1171 206.199 99.4549 209.523 99.4549 213.547Z" fill="#BFC2D1"/>
<g style="mix-blend-mode:multiply" opacity="0.65">
<g style="mix-blend-mode:multiply" opacity="0.65">
<path d="M84.0054 216.61C82.5781 216.759 81.1364 216.527 79.8298 215.938C78.5231 215.348 77.3991 214.422 76.5742 213.256C75.8671 214.173 74.8483 214.802 73.7078 215.028C72.5673 215.253 71.3832 215.059 70.3766 214.481H70.2297C68.5261 215.035 67.4687 213.227 67.5568 211.332C67.3454 211.881 67.2359 212.464 67.2337 213.052C67.226 213.755 67.3583 214.453 67.6231 215.105C67.8879 215.758 68.28 216.352 68.7768 216.853C69.2736 217.354 69.8653 217.753 70.5179 218.027C71.1705 218.3 71.8711 218.443 72.5795 218.447H72.7264C73.8484 219.197 75.1633 219.612 76.5154 219.643C77.4319 219.637 78.3389 219.459 79.1883 219.118C80.5061 220.212 82.1699 220.811 83.8879 220.809C87.9413 220.809 99.3966 220.809 99.4553 213.577C99.4449 213.119 99.3022 212.674 99.0441 212.294C97.928 215.297 93.5515 216.639 84.0054 216.61Z" fill="#BFC2D1"/>
</g>
</g>
<path d="M83.8878 221.275C82.8555 221.271 81.834 221.065 80.8821 220.668C79.9301 220.272 79.0664 219.692 78.3405 218.964C77.6146 218.235 77.0408 217.371 76.652 216.421C76.2632 215.472 76.067 214.456 76.0747 213.431C76.0565 213.358 76.0552 213.281 76.0711 213.208C76.0869 213.134 76.1194 213.065 76.1661 213.006C76.2128 212.947 76.2725 212.899 76.3406 212.866C76.4088 212.833 76.4836 212.816 76.5594 212.816C76.6352 212.816 76.71 212.833 76.7781 212.866C76.8463 212.899 76.906 212.947 76.9527 213.006C76.9994 213.065 77.0319 213.134 77.0477 213.208C77.0635 213.281 77.0623 213.358 77.044 213.431C77.0516 215.236 77.7732 216.966 79.0534 218.248C80.3336 219.529 82.0698 220.261 83.8878 220.284C90.3498 220.284 98.9265 219.642 98.9559 213.518C98.9559 210.019 88.0587 206.665 83.9466 206.636C82.682 206.626 81.44 206.969 80.3631 207.628C80.2483 207.685 80.1165 207.699 79.9921 207.667C79.8678 207.634 79.7595 207.558 79.6876 207.453C79.6202 207.344 79.5978 207.213 79.6252 207.088C79.6525 206.963 79.7275 206.853 79.8344 206.782C81.0832 206.032 82.5163 205.638 83.9759 205.645C87.8237 205.645 99.9546 208.969 99.9252 213.518C99.8665 221.363 87.8531 221.304 83.8878 221.275Z" fill="#4D2F4F"/>
<path d="M137.14 168.493V169.135C137.14 169.543 137.14 170.126 137.14 170.943C137.018 173.222 136.693 175.486 136.171 177.708C135.337 181.176 133.938 184.486 132.029 187.506C129.504 191.414 126.082 194.672 122.042 197.013C117.237 199.759 111.861 201.375 106.328 201.737C103.304 201.973 100.263 201.905 97.2521 201.533C94.1212 201.12 91.0532 200.327 88.1172 199.171C85.0509 197.942 82.1891 196.261 79.6286 194.184C76.9667 192.068 74.6914 189.513 72.9022 186.631C71.9711 185.135 71.1655 183.564 70.4937 181.937C69.8752 180.332 69.3745 178.685 68.9957 177.008C68.2767 173.636 67.9807 170.188 68.1145 166.744C68.2494 163.301 68.8318 159.89 69.8475 156.595C70.3564 154.958 70.9847 153.36 71.7274 151.813C72.4651 150.27 73.3091 148.779 74.2534 147.351C77.986 141.784 83.3324 137.473 89.5858 134.987C92.5397 133.805 95.6429 133.029 98.8088 132.683C101.823 132.317 104.871 132.317 107.885 132.683C110.73 133.082 113.513 133.836 116.168 134.929C118.732 135.979 121.151 137.351 123.364 139.011C125.337 140.46 127.131 142.133 128.71 143.998C130.144 145.661 131.413 147.458 132.499 149.364C134.241 152.478 135.517 155.828 136.288 159.307C136.748 161.585 137.014 163.897 137.081 166.219C137.081 167.006 137.081 167.618 137.081 168.027L137.14 168.493ZM137.14 168.493V167.881C137.14 167.473 137.14 166.86 137.14 166.073C137.018 163.794 136.693 161.53 136.171 159.307C135.352 155.839 134.005 152.515 132.176 149.451C131.065 147.565 129.777 145.788 128.328 144.144C124.956 140.372 120.727 137.453 115.992 135.629C113.38 134.607 110.645 133.931 107.856 133.616C104.929 133.257 101.97 133.257 99.0438 133.616C96.0111 134.03 93.0476 134.844 90.232 136.037C84.3203 138.585 79.2944 142.804 75.7808 148.168C73.9993 150.88 72.6055 153.824 71.6392 156.916C70.6755 160.079 70.1324 163.353 70.0237 166.656C69.8604 169.952 70.127 173.255 70.8168 176.483C71.1661 178.082 71.6374 179.651 72.2267 181.178C72.802 182.69 73.4994 184.153 74.3121 185.553C75.9476 188.33 78.0314 190.823 80.4804 192.93C82.9032 194.966 85.615 196.637 88.5284 197.888C91.3511 199.073 94.3109 199.905 97.3402 200.366C100.255 200.811 103.207 200.958 106.152 200.804C111.611 200.569 116.945 199.103 121.749 196.517C125.796 194.268 129.241 191.088 131.794 187.244C133.751 184.273 135.172 180.987 135.994 177.533C136.539 175.314 136.873 173.049 136.993 170.768C136.993 169.951 136.993 169.368 136.993 168.96L137.14 168.493Z" fill="#4D2F4F"/>
<path d="M137.14 168.494C137.14 189.548 121.778 201.475 102.803 201.475C83.8288 201.475 68.5845 189.548 68.5845 168.494C68.5845 147.439 83.9463 132.917 102.803 132.917C121.661 132.917 137.14 147.439 137.14 168.494Z" fill="#BFC2D1"/>
<g style="mix-blend-mode:multiply">
<path d="M128.387 144.202C131.547 149.896 133.166 156.306 133.087 162.806C133.087 183.89 117.725 195.759 98.809 195.759C93.9265 195.921 89.0642 195.06 84.5395 193.231C80.0148 191.402 75.9295 188.646 72.55 185.144C78.4245 195.729 89.7036 201.474 102.862 201.474C121.778 201.474 137.14 189.576 137.14 168.493C137.314 159.605 134.199 150.963 128.387 144.202Z" fill="#BFC2D1"/>
</g>
<path d="M127.212 153.971C127.212 170.272 116.315 183.511 102.862 183.511C89.4094 183.511 78.5122 170.272 78.5122 153.971C78.5122 137.67 89.4094 124.431 102.803 124.431C116.197 124.431 127.212 137.641 127.212 153.971Z" fill="#FFEDDC"/>
<path d="M104.155 170.826C104.665 171.458 105.352 171.925 106.129 172.171C106.906 172.416 107.739 172.429 108.523 172.206C109.307 171.984 110.008 171.536 110.537 170.92C111.066 170.304 111.4 169.547 111.497 168.743C111.594 167.939 111.45 167.124 111.083 166.401C110.716 165.679 110.142 165.079 109.433 164.679C108.724 164.279 107.912 164.095 107.098 164.151C106.285 164.207 105.506 164.5 104.86 164.994C104.426 165.33 104.064 165.748 103.794 166.223C103.524 166.699 103.351 167.222 103.285 167.764C103.22 168.306 103.263 168.856 103.412 169.381C103.561 169.907 103.814 170.398 104.155 170.826Z" fill="#FDFAF7"/>
<path d="M105.388 176.25C105.647 176.565 106.02 176.766 106.427 176.81C106.834 176.853 107.241 176.736 107.562 176.484C107.877 176.232 108.079 175.867 108.123 175.468C108.167 175.068 108.05 174.668 107.797 174.355C107.55 174.062 107.202 173.873 106.821 173.824C106.44 173.776 106.054 173.871 105.741 174.092C105.575 174.211 105.434 174.361 105.327 174.534C105.219 174.707 105.147 174.899 105.114 175.099C105.082 175.299 105.089 175.504 105.136 175.702C105.183 175.899 105.269 176.086 105.388 176.25Z" fill="#FDFAF7"/>
<path d="M129.709 190.276L129.356 190.772C129.356 190.947 129.121 191.122 128.974 191.355C128.79 191.633 128.583 191.896 128.358 192.143L127.976 192.609L127.565 193.105L126.507 194.155L125.185 195.292L124.422 195.875L124.01 196.167H123.805L123.599 196.313L122.689 196.867L122.219 197.158L121.719 197.45L120.691 198.004L119.575 198.529L119.017 198.792L118.43 199.025L117.196 199.491L115.904 199.929L115.257 200.133L114.582 200.308C112.706 200.842 110.791 201.232 108.854 201.474H107.356H105.858H105.095H100.512H99.7488H98.2214L96.7234 201.299H96.3416H95.9891H95.2548L93.8155 201.212L92.3763 200.891L91.0545 200.425L90.379 200.25L89.7328 200.045L88.4404 199.608L87.2067 199.112L86.6193 198.879L86.0612 198.617L84.945 198.092L83.917 197.538L83.4177 197.246L82.9477 196.954L82.0665 196.4L81.6259 196.08L81.2441 195.788L80.451 195.38L79.1293 194.213L78.1012 193.163L77.6607 192.464L77.2788 191.997C77.0624 191.761 76.8659 191.507 76.6914 191.239L76.3683 190.685L76.0452 190.189L76.4564 190.656C76.8253 191.103 77.2174 191.532 77.6313 191.939L78.0425 192.347C78.2187 192.493 78.3362 192.668 78.5418 192.813L79.658 193.776L81.0385 194.796L82.6834 195.846L83.5939 196.371L84.0639 196.634L84.5632 196.867L85.5912 197.363L86.678 197.829L87.2361 198.062L87.8235 198.296L89.0278 198.704L90.2615 199.083L90.9077 199.287H91.5539C93.3619 199.739 95.1963 200.08 97.0465 200.308L98.4858 200.454H99.2201H99.925H105.095H105.829H107.268H108.707C110.568 200.228 112.412 199.887 114.229 199.433L114.876 199.287L115.522 199.083L116.755 198.733L117.96 198.296L118.547 198.092L119.105 197.858L120.221 197.392L121.22 196.896L121.749 196.663L122.219 196.4L123.129 195.875H123.335H123.57L123.952 195.613L124.774 195.117C125.244 194.738 125.714 194.417 126.155 194.097L127.3 193.105L127.77 192.668L128.181 192.259C128.739 191.735 129.121 191.268 129.386 190.976L129.709 190.276Z" fill="#4D2F4F"/>
<g style="mix-blend-mode:multiply">
<g style="mix-blend-mode:multiply">
<path d="M131.266 135.366C122.748 139.39 115.493 150.501 102.716 150.384C89.3512 150.384 80.4219 155.371 71.7277 150.967C70.3073 155.697 69.1793 160.507 68.3499 165.373C79.5995 169.31 92.2591 169.135 105.741 167.064C124.716 164.148 129.915 158.316 137.111 153.359C136.876 152.834 131.324 135.949 131.266 135.366Z" fill="#BFC2D1"/>
</g>
</g>
<path d="M104.038 89.1752H103.304C96.9298 88.0379 96.6654 74.9445 96.5479 58.3226C96.5479 51.9947 96.5479 45.4626 96.0192 39.2512C94.6681 20.0049 102.422 9.53602 105.742 5.83256C107.124 4.17916 108.822 2.81289 110.737 1.81208C112.652 0.811266 114.748 0.195584 116.903 0.000323746C117.323 -0.0307069 117.746 -0.0307069 118.166 0.000323746C120.231 0.616505 122.135 1.67118 123.748 3.09119C125.361 4.5112 126.643 6.26255 127.507 8.22377C132.705 17.9636 132.177 31.4361 126.302 44.3545C123.629 50.1867 121.25 56.9521 118.959 63.455C113.936 77.8315 109.942 89.1752 104.038 89.1752ZM116.903 2.50818C113.268 2.97098 109.953 4.80968 107.651 7.64055C104.478 11.0232 97.2822 20.7922 98.5452 39.1346C98.9565 45.4043 99.0152 51.9947 99.074 58.3518C99.074 71.8826 99.3089 85.9091 103.715 86.6381H104.038C108.15 86.6381 112.468 74.4488 116.639 62.6093C118.959 56.0481 121.368 49.2827 124.099 43.3046C129.651 31.0861 129.974 18.4593 125.274 9.4777C124.582 7.86511 123.554 6.41591 122.258 5.22493C120.962 4.03396 119.428 3.12805 117.755 2.56651L116.903 2.50818Z" fill="#4D2F4F"/>
<path d="M97.2824 39.2225C98.751 60.656 95.7844 86.5803 103.509 87.8634C111.234 89.1464 116.903 62.1432 125.245 43.83C136.025 20.2095 125.686 2.62527 117.961 1.34218C110.236 0.0590892 95.4907 13.3566 97.2824 39.2225Z" fill="#BFC2D1"/>
<g style="mix-blend-mode:multiply">
<g style="mix-blend-mode:multiply">
<path d="M115.787 16.535C109.296 15.3978 102.217 20.4135 97.7229 26.9456C100.396 9.18642 111.616 0.292269 117.961 1.34207C124.305 2.39187 132.852 15.1061 128.828 33.4193C126.949 25.2251 122.513 17.7015 115.787 16.535Z" fill="#BFC2D1"/>
</g>
</g>
<path d="M105.095 80.6891H104.625C99.8668 79.8726 99.8668 68.0623 101.189 47.9411C102.246 33.3605 108.355 25.312 113.584 25.312C113.837 25.2821 114.094 25.2821 114.347 25.312C115.447 25.5924 116.472 26.1084 117.35 26.8237C118.228 27.5391 118.937 28.4365 119.429 29.4529C122.542 34.7894 122.542 42.8671 119.429 51.003C118.43 53.6275 117.432 56.5728 116.345 59.7514C111.939 72.7281 108.972 80.6016 105.124 80.6599L105.095 80.6891ZM113.584 27.8199C110.059 27.8199 104.772 34.8769 103.715 48.2327C103.215 55.1147 102.775 62.2884 102.951 68.2081C103.186 77.8605 104.978 78.2687 105.066 78.2979C105.301 78.2979 106.564 78.0063 108.943 72.6406C110.617 68.908 112.321 63.8923 113.966 59.0807C115.023 55.9313 116.051 52.9568 116.903 50.3323C121.103 39.2802 118.078 32.6606 116.903 30.911C116.593 30.2216 116.14 29.6052 115.573 29.1025C115.006 28.5999 114.338 28.2223 113.613 27.9949L113.584 27.8199Z" fill="#4D2F4F"/>
<path d="M102.452 48.0292C101.57 60.481 100.484 78.6775 104.831 79.4066C109.178 80.1356 114.024 61.7641 118.254 50.6245C123.482 36.9188 118.518 27.2956 114.142 26.5957C109.765 25.8958 103.509 33.3902 102.452 48.0292Z" fill="url(#paint0_linear_45_3467)"/>
<path d="M61.6827 70.2788L59.8616 66.7212C60.5558 67.8611 61.1645 69.0502 61.6827 70.2788Z" fill="#FFEDDC"/>
<path d="M54.6333 97.0194L53.7227 96.4945C53.1646 96.1445 52.401 95.6196 51.5198 94.9781C50.6386 94.3365 49.6106 93.52 48.5825 92.616L46.9964 91.2163C46.4677 90.7497 45.939 90.2248 45.4103 89.7291C44.8816 89.2333 44.3823 88.7376 43.8829 88.2127L42.4437 86.6671C41.5331 85.6757 40.7107 84.6842 40.0351 83.751C39.3596 82.8179 38.8309 82.118 38.449 81.5931L37.8616 80.7183L38.7721 81.214C39.1164 81.3992 39.4498 81.6037 39.7708 81.8264C40.1526 82.0888 40.5932 82.3513 41.0338 82.7012C41.4744 83.0512 42.943 84.1301 43.9711 85.005C44.4998 85.4327 45.0285 85.8992 45.5572 86.4047L47.1727 87.8919L48.7 89.4375L50.1099 90.983C51.0205 92.0036 51.8429 92.9951 52.5184 93.8991C53.194 94.8031 53.6933 95.5321 54.0458 96.0862L54.6333 97.0194Z" fill="#4D2F4F"/>
<path d="M38.3901 54.6484H40.0056H41.6505L43.2953 54.7942L44.9402 55.0275L46.5557 55.4066L48.1418 55.8732L49.6985 56.4856L51.2259 57.1855L52.6945 58.002L54.1338 58.906L55.4849 59.8975L56.7479 61.0056L57.9522 62.172L59.0684 63.4259L60.0964 64.7674L61.0363 66.1671L62.6224 69.2873C62.8868 69.8122 63.1511 70.3371 63.3861 70.862L64.1498 72.4368L65.6478 75.5862C66.1178 76.6651 66.6171 77.7149 67.0577 78.7939C67.4983 79.8728 67.9976 80.9518 68.4088 82.0308L69.6718 85.326C69.8481 85.88 70.0537 86.4341 70.2593 86.9882L70.788 88.6504C71.1111 89.7876 71.4636 90.8958 71.7573 92.0331C71.1698 91.0124 70.6411 89.9626 70.1124 88.9128C69.8187 88.4171 69.5837 87.8922 69.3194 87.3673L68.4969 85.8217L66.8521 82.7598L66.059 81.2143L65.2366 79.6687C64.6785 78.6481 64.1498 77.6274 63.6211 76.7526L61.9762 73.6615L60.3901 70.5704C59.8321 69.5206 59.3033 68.5 58.804 67.4502L57.9816 66.1671L57.071 64.9423L56.0724 63.7759L55.015 62.6386L53.8988 61.5888L52.7239 60.5973L51.4903 59.6642L50.1979 58.8185L48.8467 58.0311L47.4662 57.3313L46.027 56.6897L44.5584 56.1648L43.031 55.6691L41.4742 55.29L39.9175 54.9692L38.3901 54.6484Z" fill="#4D2F4F"/>
<path d="M35.5703 56.6897C36.5103 56.0482 37.4502 55.3483 38.5076 54.6484C42.8437 54.6695 47.1026 55.7895 50.8806 57.9023C54.6587 60.015 57.8308 63.0505 60.0964 66.7212L61.6825 70.2788C70.1418 86.9882 78.043 103.931 72.6091 107.693C69.2606 110.025 63.063 105.156 55.6905 98.1569C50.5209 93.2287 44.7639 87.2506 39.0363 81.9433C37.3033 80.3394 35.541 78.7939 33.808 77.365C13.9228 60.6848 29.1671 61.2389 35.5703 56.6897Z" fill="#BFC2D1"/>
<path d="M57.7757 93.4616L56.8945 92.8784L54.486 91.1579C53.458 90.3997 52.2537 89.4082 50.8732 88.2418C49.4927 87.0753 47.9359 85.8214 46.3204 84.3633L43.765 82.1179L42.4139 80.9223L41.1215 79.6684C39.1884 77.7715 37.5101 75.6348 36.1282 73.3113C35.3965 72.0611 34.7679 70.7544 34.2483 69.4037C33.7047 68.0042 33.33 66.5457 33.1322 65.0587C32.8687 63.5144 32.8687 61.9371 33.1322 60.3929C33.2925 59.5576 33.5798 58.7513 33.984 58.0016C34.4078 57.1627 35.0459 56.4488 35.8345 55.9312L36.0694 55.7854L36.4513 55.5813L37.1268 55.348C37.5755 55.2139 38.0392 55.1355 38.5074 55.1147C39.3885 55.0815 40.2697 55.1798 41.1215 55.4063C42.6382 55.8222 44.0837 56.4611 45.4099 57.3018C46.6737 58.1097 47.863 59.027 48.964 60.0429C50.0175 61.001 50.9991 62.0341 51.9012 63.134C52.7957 64.1743 53.6293 65.2648 54.3979 66.4001C55.1616 67.5082 55.8371 68.6163 56.4833 69.7244C57.7463 71.9115 58.8037 73.982 59.8318 75.9066C60.8598 77.8312 61.7704 79.6101 62.5341 81.2139C63.2977 82.8178 63.9439 84.1301 64.4433 85.4131C64.9426 86.6962 65.2363 87.5419 65.5007 88.1543L65.8531 89.1458L65.3538 88.2126C65.0601 87.6294 64.5608 86.7546 63.9733 85.6173C63.3859 84.48 62.4753 83.1677 61.6822 81.6514C61.2417 80.8932 60.713 80.1058 60.2136 79.2601C59.7143 78.4145 59.1268 77.5396 58.5688 76.6065L54.8678 70.7742C53.492 68.6197 51.9398 66.5812 50.227 64.6796C48.4499 62.6059 46.3709 60.8072 44.0588 59.3431C42.9595 58.6329 41.7483 58.1105 40.4753 57.7975C39.937 57.6218 39.3687 57.5545 38.8038 57.5995C38.2389 57.6446 37.6888 57.8011 37.1856 58.06C36.7688 58.3494 36.4348 58.7412 36.2163 59.1973C35.928 59.7278 35.7201 60.2977 35.5995 60.8886C35.393 62.1733 35.393 63.4824 35.5995 64.767C35.9718 67.3885 36.8282 69.9193 38.1255 72.2323C39.3543 74.4426 40.8324 76.5069 42.5314 78.3853L43.7944 79.6976L45.0574 80.9806L47.4366 83.401L49.6395 85.5881C50.3445 86.288 50.9907 86.9879 51.6369 87.6002C52.8999 88.7958 53.9867 89.904 54.9266 90.7788L57.1001 92.7618L57.7757 93.4616Z" fill="#4D2F4F"/>
<path d="M56.3075 71.3289C62.5639 82.1769 69.7308 94.0163 66.1179 96.5242C62.5051 99.032 51.8723 88.709 43.178 80.4855C32.5158 70.3375 32.7801 59.577 36.4223 57.1566C40.0645 54.7362 48.9644 58.5855 56.3075 71.3289Z" fill="url(#paint1_linear_45_3467)"/>
<path d="M36.187 53.6572L34.4834 54.2404L36.187 53.6572Z" fill="#BFC2D1"/>
<path d="M53.4289 64.3012H52.8708C52.4354 64.3187 52.0026 64.3773 51.5784 64.4762C49.9754 64.8705 48.4741 65.5958 47.1725 66.605C45.1526 68.162 43.3887 70.0214 41.9442 72.1164L41.3274 73.0496V73.2537V73.487L41.1218 74.0702C40.9731 74.422 40.8456 74.7823 40.7399 75.1492C40.6014 75.519 40.4934 75.8993 40.4168 76.2865C40.0671 77.9542 39.9289 79.6588 40.0056 81.3605C40.0056 82.2645 40.0056 83.1977 40.0056 84.2766C40.0056 85.3556 40.0056 86.1721 40.0056 87.1927V90.2547C40.0056 91.3045 40.0056 92.2959 39.8294 93.3749C39.6846 95.5679 39.4001 97.7497 38.9776 99.907C38.9776 100.461 38.7132 101.015 38.5664 101.598C38.5117 101.874 38.4431 102.146 38.3608 102.415L38.067 103.261L37.8027 104.106L37.4502 104.923L37.274 105.331V105.535L36.8628 106.322C36.2432 107.406 35.4607 108.389 34.5423 109.239C33.5272 110.181 32.2819 110.845 30.9295 111.163L29.9602 111.338H28.756C28.0757 111.329 27.3976 111.26 26.7293 111.134C25.4339 110.862 24.1866 110.4 23.0283 109.763C20.7898 108.494 18.7999 106.834 17.1538 104.864C15.4979 103.031 14.059 101.016 12.8654 98.8572C11.7243 96.5925 10.8189 94.2182 10.1632 91.771C9.98693 91.1587 9.84007 90.5463 9.69321 89.9631L9.37011 88.1259L9.19388 87.2219V86.2887C9.19388 85.6472 9.19388 85.0348 8.98827 84.3933C8.83041 81.9168 8.96844 79.4305 9.39948 76.9863C9.81613 74.5475 10.6087 72.1869 11.7493 69.9877C12.8194 67.858 14.1946 65.8936 15.8321 64.1554C17.3749 62.634 19.0563 61.2575 20.8548 60.0437C21.2953 59.7229 21.7653 59.4605 22.2059 59.1689L23.4983 58.3232C23.9238 58.0276 24.365 57.7551 24.82 57.5067C25.29 57.2442 25.7306 56.9526 26.2006 56.7485L27.5811 56.1069L28.9909 55.582H29.1672H29.3728H29.6959L30.3714 55.3779L31.7813 54.9988L32.4569 54.853L33.1618 54.7072L34.513 54.5031L35.8641 54.3573H37.1565C38.7897 54.3449 40.421 54.4718 42.0323 54.7364C43.4311 54.981 44.8066 55.3419 46.1445 55.8153C48.8682 56.7583 51.4035 58.1699 53.6345 59.9854C54.1044 60.3645 54.4275 60.6561 54.6331 60.8602L54.9856 61.1518L54.6331 60.8894L53.5757 60.102C52.2004 59.1712 50.7458 58.3613 49.2286 57.6816C48.1564 57.2199 47.0579 56.8207 45.9389 56.486C44.6105 56.0468 43.257 55.6865 41.8855 55.4071C40.3316 55.2741 38.7691 55.2741 37.2152 55.4071H35.9816L34.7186 55.582L33.4262 55.8445L32.78 55.9903L32.1632 56.1653C30.3618 56.6838 28.627 57.4079 26.9936 58.3232C26.553 58.5273 26.1712 58.7898 25.76 59.0231C25.3487 59.2563 24.9082 59.548 24.4969 59.8396L23.2046 60.7436L21.9709 61.6184C18.4891 64.11 15.6425 67.3755 13.6585 71.1541C12.7156 73.1294 12.0722 75.2323 11.7493 77.3946C11.7493 77.9487 11.6024 78.5027 11.5143 79.0859C11.4262 79.6692 11.5143 79.64 11.5143 79.9316V80.7773C11.4557 81.9236 11.4557 83.072 11.5143 84.2183C11.5143 84.8015 11.5143 85.3556 11.7199 85.9096V86.7845L11.8961 87.6593L12.2486 89.409C12.2486 89.9922 12.513 90.5463 12.6892 91.1295C13.3074 93.4045 14.1537 95.6124 15.2152 97.7199C16.2675 99.8113 17.5692 101.769 19.0924 103.552C20.5248 105.288 22.255 106.759 24.2032 107.897C26.0267 108.989 28.1782 109.412 30.2833 109.093C31.2395 108.878 32.1212 108.415 32.8387 107.751C33.5936 107.055 34.2373 106.249 34.7479 105.36C35.7541 103.446 36.4951 101.406 36.9509 99.2946C37.4482 97.2425 37.7918 95.1566 37.9789 93.0541C37.9789 92.0627 38.1552 90.9837 38.2433 89.9922C38.3314 89.0007 38.2433 88.0093 38.2433 87.0761C38.2433 86.1429 38.2433 85.1223 38.2433 84.16V81.2439C38.2378 79.4341 38.4648 77.631 38.9188 75.8782C39.0294 75.4616 39.1667 75.0525 39.3301 74.6534C39.4606 74.2504 39.6278 73.86 39.8294 73.487L40.0937 72.9621V72.6705L40.7987 71.7373C42.5354 69.5651 44.631 67.7014 46.9963 66.2259C48.3951 65.2745 49.991 64.6467 51.6665 64.3887C52.1057 64.3393 52.5491 64.3393 52.9883 64.3887L53.4289 64.3012Z" fill="#4D2F4F"/>
<path d="M23.4982 59.4895C25.3001 58.1443 27.2759 57.0458 29.3727 56.2235C30.4905 55.8822 31.6284 55.6095 32.7799 55.407C36.6641 54.5438 40.6984 54.6009 44.5562 55.5737C48.414 56.5464 51.9869 58.4073 54.9855 61.0059L59.5089 67.0714C50.1391 58.3231 40.8574 72.9037 40.8574 72.9037C39.4829 75.7938 38.8955 78.9911 39.1538 82.1769C39.1538 84.8306 39.1538 87.4551 39.1538 89.9338C39.1256 95.0494 38.1292 100.114 36.2165 104.864C35.738 106.119 34.9752 107.248 33.9871 108.163C32.999 109.078 31.8121 109.755 30.5183 110.142C23.4395 111.717 13.9522 103.056 10.8974 89.5255C7.63709 75.1782 13.541 65.6717 23.4982 59.4895Z" fill="#BFC2D1"/>
<g style="mix-blend-mode:multiply">
<g style="mix-blend-mode:multiply">
<path d="M27.2582 96.0579C30.1904 95.3106 32.858 93.7745 34.9673 91.6187C37.0765 89.4629 38.5456 86.7709 39.2128 83.8394C39.4771 97.1077 37.333 108.801 30.401 110.289C23.4691 111.776 13.9524 103.232 10.8977 89.6716C12.7418 92.1582 15.2559 94.0769 18.1504 95.2068C21.045 96.3367 24.2021 96.6317 27.2582 96.0579Z" fill="#BFC2D1"/>
</g>
</g>
<path d="M129.563 82.0601L128.799 81.2436L127.859 80.2813L127.272 79.6398L126.567 78.9982L124.922 77.4527L122.866 75.7613C122.131 75.1781 121.309 74.6241 120.457 73.9825C119.605 73.341 118.636 72.8161 117.667 72.1745C117.168 71.8537 116.639 71.5913 116.11 71.2997L114.495 70.4248L112.762 69.6375L111.88 69.2292L110.97 68.8501L109.119 68.1211L107.151 67.4796C105.83 67.0421 104.449 66.7505 103.069 66.3714L100.925 65.9923L99.8671 65.7882H98.7803L96.5774 65.5549H94.3157H92.054C91.2903 65.5549 90.5267 65.5549 89.7923 65.5549C88.265 65.7007 86.8551 65.8174 85.2396 66.109L84.0941 66.284H83.5947L83.0073 66.4298L80.7162 66.9547L78.5721 67.5962L77.4853 67.9461L76.4279 68.3544L75.3998 68.7335L74.3424 69.1709L72.3157 70.0749C71.6401 70.3957 71.0233 70.7456 70.3771 71.0955L69.4078 71.5913L68.4973 72.1745C66.0885 73.5664 63.8081 75.1668 61.6829 76.9569L60.2142 78.2692C59.7443 78.7066 59.3331 79.1732 58.8925 79.6106C58.4519 80.048 58.0113 80.4563 57.6001 80.9229L56.4546 82.2643C56.249 82.4684 56.0727 82.7017 55.8965 82.9058L55.3678 83.5765L54.3985 84.8596C53.7523 85.7053 53.2236 86.551 52.6949 87.3383C51.6962 88.9422 50.8444 90.2544 50.2276 91.5667C49.6108 92.8789 49.1702 93.7538 48.8765 94.4828L48.4065 95.5034L48.7296 94.4245C49.0266 93.4335 49.3797 92.4599 49.787 91.5084C50.383 89.9632 51.0695 88.454 51.8431 86.9884C52.313 86.1719 52.8124 85.2387 53.3704 84.3347L54.3104 82.935L54.7803 82.2351L55.309 81.5061L56.4252 80.0772C56.8016 79.5713 57.2035 79.0847 57.6295 78.6191C58.0701 78.1234 58.4813 77.6276 58.9512 77.1611L60.3905 75.7322C62.4742 73.7324 64.7462 71.9356 67.1755 70.3665C69.7724 68.6683 72.5503 67.2601 75.4586 66.1673L76.5453 65.7299L77.7202 65.3508L80.0113 64.6509L82.3024 64.0969L82.8898 63.9511H83.2129H83.5066L84.7109 63.7469C86.297 63.4553 87.9125 63.3387 89.4986 63.1929C90.2917 63.1929 91.1141 63.1929 91.9072 63.1929H93.1114C93.4933 63.1929 93.9045 63.1929 94.2863 63.1929L96.6655 63.3387L98.9859 63.6594L100.131 63.8053L101.277 64.0385C102.011 64.2135 102.775 64.3302 103.48 64.5343C104.949 64.9425 106.417 65.2925 107.739 65.8174L109.736 66.5756L111.616 67.0713L112.556 67.5087L113.437 67.9753L115.17 68.9085C115.728 69.2292 116.257 69.5792 116.786 69.9291C117.316 70.2254 117.827 70.5566 118.313 70.9206L119.752 71.9412C120.193 72.2912 120.663 72.5828 121.074 72.9619C121.485 73.341 122.69 74.3324 123.394 74.974L125.304 76.8695L126.802 78.59L127.448 79.3482L127.977 80.0189L128.77 81.0978L129.563 82.0601Z" fill="#4D2F4F"/>
<path d="M48.4944 95.5031L47.9951 97.3111C47.8074 97.9054 47.6506 98.5089 47.5251 99.1191L47.1433 100.956C46.9964 101.539 46.9671 102.181 46.8496 102.793C46.7321 103.406 46.644 104.018 46.6146 104.631V106.497V107.43V110.2C46.6146 110.842 46.6146 111.454 46.6146 112.067C46.6146 112.679 46.6146 113.291 46.6146 113.904L46.8202 115.77C46.8202 116.062 46.8202 116.383 46.8202 116.674L46.9964 117.578L47.3489 119.415C47.3489 119.969 47.6426 120.611 47.7895 121.194C47.9346 121.805 48.1111 122.409 48.3182 123.002L48.8469 124.752V125.073L48.7 125.277L47.8776 126.385L47.0552 127.405L46.6733 127.901L46.4971 128.164C46.2621 128.514 45.9978 128.864 45.7628 129.243C44.9185 130.633 44.2758 132.135 43.8536 133.704C43.4731 135.278 43.3541 136.904 43.5011 138.516L43.6774 139.711V139.916V140.236L43.8242 140.849C43.8242 141.257 44.1179 141.578 44.2354 141.957L44.7641 143.007C46.4776 145.801 48.9246 148.079 51.8429 149.597C52.5772 150.005 53.3115 150.384 54.0752 150.734C54.8389 151.084 55.5732 151.376 56.3956 151.668C58.0111 152.309 59.5679 152.805 61.2127 153.301C67.7366 155.238 74.4952 156.288 81.3035 156.421C84.7056 156.513 88.1102 156.387 91.4958 156.042L94.0512 155.779L96.5772 155.4L97.8402 155.225L99.0739 154.992L101.6 154.496L104.126 153.971L105.389 153.68L106.593 153.388L109.061 152.747L111.498 151.988C114.797 151.108 118.035 150.017 121.191 148.722C124.281 147.308 127.282 145.711 130.179 143.94C133.075 142.191 135.843 140.242 138.462 138.108C139.755 137.029 141.018 135.921 142.251 134.725L143.162 133.85L144.043 132.946C144.601 132.363 145.13 131.692 145.629 131.051C147.692 128.531 149.04 125.511 149.536 122.302C149.536 121.923 149.536 121.515 149.536 121.107C149.536 120.698 149.536 120.319 149.536 119.911V119.328V119.036V118.803L149.213 117.549C148.7 115.909 147.905 114.37 146.863 113C145.849 111.707 144.652 110.568 143.309 109.617L142.251 108.946L141.723 108.626L140.988 108.305L139.843 107.663L138.668 106.963H138.462V106.672L138.374 104.981C138.345 104.433 138.286 103.888 138.198 103.347L138.051 101.685C137.972 101.145 137.864 100.61 137.728 100.081C137.728 99.5274 137.522 98.9733 137.376 98.4484L136.935 96.8737L136.583 96.2322L136.318 95.4448L135.819 93.8993L135.114 92.2079C134.908 91.7122 134.703 91.1873 134.468 90.6915L133.763 89.2043C133.528 88.7086 133.263 88.2128 132.999 87.7463C132.735 87.2797 132.5 86.7548 132.206 86.2882L131.325 84.8593C131.049 84.385 130.745 83.9274 130.414 83.4887L129.474 82.1182L130.502 83.4304C130.855 83.8678 131.178 84.3053 131.501 84.7718L132.441 86.1424L133.322 87.5713C133.616 88.0379 133.91 88.5045 134.174 89.0002L135.114 90.3999C135.378 90.8665 135.613 91.3914 135.848 91.8872C136.083 92.3829 136.318 92.9078 136.524 93.4327L137.141 94.9782L137.434 95.7656L137.699 96.5529L138.198 98.1568C138.374 98.6817 138.492 99.2358 138.639 99.7607C138.785 100.286 138.932 100.81 139.02 101.394L139.344 103.056C139.344 103.581 139.52 104.135 139.608 104.689L139.814 106.351L139.579 105.943C140.988 106.672 142.516 107.43 144.102 108.392C145.594 109.399 146.938 110.606 148.097 111.979C149.238 113.417 150.131 115.033 150.74 116.762L151.093 117.986V118.365V118.686V119.386C151.093 119.824 151.093 120.29 151.093 120.757C151.093 121.223 151.093 121.661 151.093 122.127C150.904 123.927 150.438 125.687 149.712 127.347C148.986 128.987 148.08 130.542 147.01 131.984C146.494 132.716 145.935 133.417 145.336 134.083C145.042 134.433 144.748 134.725 144.454 135.046L143.514 135.979C142.281 137.204 140.959 138.37 139.637 139.507C134.313 144.04 128.383 147.818 122.014 150.734C118.904 152.201 115.706 153.477 112.438 154.555L109.912 155.313L107.386 155.983L106.094 156.333L104.831 156.596L102.275 157.179L99.7201 157.646L98.4277 157.908L97.1353 158.083L94.5211 158.462L91.907 158.725C88.4216 159.045 84.9202 159.162 81.421 159.074C77.9164 158.967 74.423 158.626 70.9644 158.054C67.5022 157.496 64.0859 156.687 60.7428 155.633C59.0685 155.109 57.3649 154.525 55.7788 153.884C54.9858 153.592 54.134 153.242 53.3409 152.863C52.5478 152.484 51.7548 152.047 50.9617 151.609C49.4049 150.694 47.9565 149.608 46.644 148.372C45.3069 147.128 44.1767 145.681 43.2955 144.086L42.7081 142.861C42.7081 142.394 42.385 141.928 42.2675 141.519L42.0912 140.878V140.586V140.266L41.915 138.895C41.7804 137.09 41.9593 135.275 42.4437 133.529C42.9733 131.803 43.7339 130.155 44.7054 128.63L45.4691 127.58L45.6747 127.318L46.0859 126.793L46.9083 125.831L47.672 124.898V125.422L47.1433 123.585C46.9671 122.963 46.8202 122.351 46.7027 121.748C46.7027 121.107 46.4384 120.553 46.3209 119.882L46.0272 118.016V117.082V116.12V114.254C46.0272 113.612 46.0272 113 46.0272 112.358C46.0272 111.717 46.0272 111.104 46.0272 110.463V108.597V107.634C46.0272 107.343 46.0272 107.022 46.0272 106.701L46.2621 104.835C46.2621 104.222 46.4971 103.61 46.6146 102.998C46.7321 102.385 46.8202 101.744 46.9964 101.131L47.4664 99.3233C47.6214 98.7211 47.8076 98.1274 48.0245 97.5444L48.4944 95.5031Z" fill="#4D2F4F"/>
<path d="M142.075 108.043C141.429 107.693 139.402 106.643 139.138 106.439C138.982 104.667 138.727 102.904 138.374 101.161C135.898 89.1166 128.705 78.542 118.378 71.7613C108.05 64.9806 95.4335 62.5489 83.3008 65.0007C71.1828 67.4925 60.5551 74.6546 53.7491 84.9159C46.9431 95.1771 44.5147 107.7 46.9964 119.736C47.3455 121.484 47.8066 123.208 48.3769 124.898C48.2301 125.189 46.7615 126.91 46.3209 127.493C44.8472 129.251 43.7807 131.308 43.197 133.521C42.6133 135.733 42.5266 138.046 42.943 140.295C44.2354 146.564 50.433 150.56 55.1326 152.455C70.0764 158.333 86.4689 159.554 102.129 155.954C117.934 153.147 132.509 145.642 143.926 134.433C147.48 130.876 151.621 124.752 150.329 118.511C149.817 116.27 148.811 114.169 147.384 112.359C145.957 110.549 144.144 109.075 142.075 108.043Z" fill="#BFC2D1"/>
<g style="mix-blend-mode:multiply">
<g style="mix-blend-mode:multiply">
<path d="M145.629 110.58C145.817 111.135 145.974 111.7 146.099 112.271C147.362 118.512 143.514 124.577 140.225 128.106C129.608 139.082 115.772 146.45 100.689 149.16C85.7497 152.563 70.1082 151.174 56.0137 145.194C51.549 143.27 45.5864 139.362 44.2647 132.947C44.2647 132.363 44.0591 131.809 44.0003 131.226C42.6691 134.056 42.2882 137.235 42.9135 140.295C44.2059 146.565 50.4035 150.56 55.1031 152.456C70.0469 158.334 86.4394 159.554 102.099 155.955C117.915 153.153 132.501 145.648 143.926 134.434C147.48 130.876 151.621 124.752 150.329 118.512C149.666 115.434 148.017 112.651 145.629 110.58Z" fill="#BFC2D1"/>
</g>
</g>
<g style="mix-blend-mode:screen" opacity="0.3">
<g style="mix-blend-mode:screen" opacity="0.3">
<path d="M121.279 136.795C122.689 141.84 115.757 148.139 105.8 150.851C95.8427 153.563 86.6491 151.726 85.2392 146.681C83.8293 141.636 90.7612 135.337 100.718 132.596C110.676 129.855 119.869 131.751 121.279 136.795Z" fill="#BFC2D1"/>
</g>
</g>
<path d="M68.9671 77.2774C67.4159 78.569 65.9629 79.9726 64.6199 81.4766C63.3215 82.9635 62.1614 84.5642 61.154 86.2591C60.1655 87.9353 59.3676 89.7153 58.7748 91.5664C58.1823 93.3849 57.8752 95.2832 57.8643 97.1945C58.2789 95.3886 58.9936 93.664 59.9791 92.0913C60.9159 90.5482 62.0189 89.1108 63.2688 87.8046C64.5885 86.5116 66.0239 85.3403 67.5572 84.3053C68.9696 83.3318 70.441 82.4456 71.9631 81.6516C72.3006 81.5112 72.605 81.3028 72.8572 81.0395C73.1093 80.7763 73.3037 80.4639 73.428 80.1222C73.5522 79.7805 73.6037 79.4169 73.5791 79.0544C73.5545 78.6919 73.4543 78.3385 73.285 78.0164C73.1157 77.6944 72.8808 77.4107 72.5953 77.1835C72.3099 76.9562 71.98 76.7902 71.6265 76.6961C71.2731 76.602 70.9039 76.5817 70.5421 76.6366C70.1804 76.6915 69.8341 76.8203 69.5251 77.015C69.3411 77.1047 69.1726 77.2228 69.0258 77.3649L68.9671 77.2774Z" fill="#4D2F4F"/>
<path d="M95.6961 74.536C97.4756 74.4048 99.2624 74.4048 101.042 74.536C102.818 74.6688 104.577 74.9616 106.3 75.4109C108.065 75.8736 109.771 76.539 111.381 77.3938C113.03 78.2349 114.537 79.3271 115.846 80.6307C114.824 79.0166 113.567 77.5621 112.115 76.3148C110.632 75.0495 109.017 73.9448 107.298 73.0196C105.543 72.0853 103.704 71.3141 101.806 70.7159C99.8855 70.1109 97.9216 69.6527 95.9311 69.3453C95.2571 69.2677 94.5785 69.4474 94.0331 69.8482C93.4876 70.2489 93.1161 70.8406 92.9939 71.5033C92.9083 72.1737 93.0866 72.851 93.4915 73.3942C93.8963 73.9374 94.4967 74.3046 95.1674 74.4194C95.3381 74.48 95.5157 74.5192 95.6961 74.536Z" fill="#4D2F4F"/>
<g style="mix-blend-mode:screen" opacity="0.3">
<g style="mix-blend-mode:screen" opacity="0.3">
<path d="M90.4678 72.0864C90.8245 72.9166 91.4955 73.5744 92.3361 73.918C93.1767 74.2617 94.1197 74.2637 94.9618 73.9236C95.8705 73.7865 96.6884 73.2996 97.2381 72.5682C97.7879 71.8368 98.0253 70.9199 97.899 70.016C97.4609 69.2622 96.7818 68.6752 95.9694 68.3481C95.1571 68.0209 94.258 67.9724 93.4148 68.2102C92.5715 68.4479 91.8323 68.9584 91.3144 69.6606C90.7965 70.3628 90.5296 71.2165 90.5559 72.0864H90.4678Z" fill="#E6CFB9"/>
</g>
</g>
<g style="mix-blend-mode:multiply">
<g style="mix-blend-mode:multiply">
<path d="M95.8722 76.228C89.0577 79.1441 89.1752 88.2424 89.3808 95.1244C86.1792 90.4003 77.3087 84.568 70.8762 84.8597C60.4489 85.5304 56.3661 102.356 57.1592 114.517C57.9523 126.677 67.5571 131.051 76.8975 126.473C81.6497 124.507 85.6337 121.068 88.2543 116.668C90.8748 112.269 91.9913 107.146 91.4369 102.065C93.8203 106.092 97.2725 109.391 101.416 111.603C105.56 113.814 110.237 114.852 114.935 114.604C125.362 114.604 131.824 106.118 127.007 95.0369C122.19 83.9557 105.477 72.1162 95.8722 76.228Z" fill="#BFC2D1"/>
</g>
</g>
<g style="mix-blend-mode:screen" opacity="0.3">
<g style="mix-blend-mode:screen" opacity="0.3">
<path d="M110.088 110.521C110.764 112.854 117.314 113.029 124.775 110.9C132.235 108.772 137.669 105.243 137.023 102.91C136.377 100.577 129.797 100.432 122.337 102.531C114.876 104.631 109.413 108.218 110.088 110.521Z" fill="#E6CFB9"/>
</g>
</g>
<g style="mix-blend-mode:screen" opacity="0.3">
<g style="mix-blend-mode:screen" opacity="0.3">
<path d="M57.776 126.385C58.4516 128.689 65.0016 128.864 72.4623 126.764C79.9229 124.665 85.3862 121.078 84.7106 118.774C84.035 116.47 77.485 116.266 70.0243 118.366C62.5637 120.465 57.1298 124.052 57.776 126.385Z" fill="#E6CFB9"/>
</g>
</g>
<g style="mix-blend-mode:screen" opacity="0.6">
<g style="mix-blend-mode:screen" opacity="0.6">
<path d="M66.7052 123.498C67.087 124.898 69.9362 125.306 73.079 124.432C76.2219 123.557 78.3954 121.69 77.9842 120.32C77.573 118.949 74.7533 118.512 71.6104 119.387C68.4675 120.261 66.294 122.128 66.7052 123.498Z" fill="#E6CFB9"/>
</g>
</g>
<path d="M63.0046 114.195C61.5654 106.701 62.8284 95.7359 69.3197 94.5112C73.3144 93.7821 81.8911 101.597 84.2703 104.28C78.0433 101.481 63.0046 114.195 63.0046 114.195Z" fill="#BFC2D1"/>
<path d="M69.2607 108.509C67.6721 104.675 67.5778 100.392 68.9963 96.4941C63.9736 97.923 63.1218 106.701 64.1792 112.766C65.8633 111.366 67.6181 110.052 69.4369 108.829L69.2607 108.509Z" fill="#BFC2D1"/>
<path d="M84.5639 104.367H84.2995C84.0592 104.189 83.7914 104.051 83.5064 103.959H83.2421H82.919L82.2434 103.434H81.3916H80.4223H79.3649L78.2781 103.667L77.162 104.017L76.0165 104.455L75.429 104.688L74.8709 104.98L73.7254 105.563L72.6092 106.204L71.5225 106.933C70.7882 107.4 70.0832 107.925 69.4076 108.45L68.409 109.237L67.4691 110.024L65.7655 111.599C65.2367 112.124 64.7374 112.62 64.2968 113.116C63.5817 113.869 62.9052 114.657 62.2701 115.478L61.7414 116.148L61.5652 116.411L62.4757 115.682L64.9137 113.757C65.9123 112.97 67.0872 112.037 68.3502 111.103C69.6133 110.17 70.9938 109.15 72.3743 108.187L74.4891 106.875C75.1684 106.442 75.8747 106.052 76.6039 105.709C77.2589 105.355 77.9358 105.044 78.6306 104.775L79.5999 104.455L80.5398 104.192L81.421 104.046H82.2141H83.2127H83.5064C83.7933 104.09 84.0776 104.148 84.3582 104.221L84.5639 104.367Z" fill="#4D2F4F"/>
<path d="M55.1033 112.737C55.1033 112.737 55.1033 112.971 55.1033 113.058V113.408C55.1033 113.408 55.1033 113.641 55.1033 113.758C55.0863 113.864 55.0863 113.972 55.1033 114.079C55.0907 114.195 55.0907 114.312 55.1033 114.429L55.2502 114.72L55.4558 115.041L55.6614 115.333L55.8964 115.595L56.1314 115.799C56.2048 115.892 56.2943 115.971 56.3957 116.033L56.7188 116.266L57.0419 116.441H57.3944H57.7469H58.0993H58.4518H59.568H59.9204H60.2729H60.6254H60.7722H60.9778L61.2422 116.295L61.5653 116.091L61.8296 115.887L62.094 115.624L62.329 115.362L62.5052 115.07C62.5157 114.973 62.5157 114.876 62.5052 114.779C62.5173 114.672 62.5173 114.564 62.5052 114.458L62.2409 114.633L61.9765 114.808C61.8789 114.797 61.7804 114.797 61.6828 114.808H61.4184H61.1541C61.0569 114.791 60.9575 114.791 60.8604 114.808H60.6254H60.3023H60.5079H60.2435H58.9218H58.6574H58.4224H58.1581H57.9231H57.6881H57.4825H57.3357L57.0713 114.604L56.8363 114.458C56.7754 114.383 56.7065 114.314 56.6307 114.254L56.4251 114.05C56.1948 113.998 55.9821 113.887 55.8083 113.729C55.7249 113.665 55.655 113.586 55.6027 113.495L55.4264 113.262L55.2502 113L55.1033 112.737Z" fill="#4D2F4F"/>
<path d="M57.7764 111.804C57.7764 111.804 57.7764 112.008 57.7764 112.095C57.7764 112.183 57.7764 112.27 57.7764 112.387C57.7764 112.504 57.7764 112.562 57.7764 112.679C57.7627 112.775 57.7627 112.873 57.7764 112.97V113.262V113.524C57.7764 113.699 57.982 113.874 58.0995 114.02L58.3051 114.253L58.5107 114.457C58.5678 114.546 58.6494 114.617 58.7457 114.662L59.01 114.836C59.0967 114.912 59.1961 114.971 59.3037 115.011L59.5975 115.157H59.8912H60.2143H60.5374H60.8311H61.8004H62.0941H62.3878H62.5641L63.034 114.866L63.269 114.662L63.504 114.428L63.6802 114.195C63.7396 114.124 63.789 114.046 63.8271 113.962C63.8381 113.875 63.8381 113.786 63.8271 113.699V113.408H63.5921H63.3571H63.1221H62.8872H62.6522H62.4466L61.9179 113.553H61.6829C61.5462 113.567 61.4084 113.567 61.2717 113.553H61.0661H60.8605H60.6549H60.4493L59.9499 113.728H59.7737H59.5681L59.3625 113.583L58.7457 112.97V112.795H58.5694L58.3932 112.62C58.3512 112.539 58.2909 112.47 58.2169 112.416C58.1615 112.343 58.1123 112.265 58.0701 112.183L57.7764 111.804Z" fill="#4D2F4F"/>
<path d="M94.6973 116.644C95.6666 119.91 91.7601 123.876 86.0912 125.393C80.4223 126.909 74.9883 125.713 74.0484 122.477C73.1085 119.24 76.9857 115.245 82.6839 113.728C88.3822 112.212 93.7574 113.495 94.6973 116.644Z" fill="#FFEDDC"/>
<path d="M117.49 110.229C118.43 113.495 114.553 117.461 108.884 118.977C103.215 120.494 97.7813 119.298 96.8414 116.061C95.9015 112.824 99.7787 108.829 105.448 107.313C111.116 105.797 116.55 106.992 117.49 110.229Z" fill="#FFEDDC"/>
<path d="M107.327 135.746C107.327 136.096 107.327 136.445 107.122 136.766L106.916 137.787C106.916 138.108 106.916 138.428 106.681 138.778C106.446 139.128 106.681 139.099 106.681 139.245C106.698 139.41 106.698 139.576 106.681 139.741V140.207C106.692 140.392 106.692 140.577 106.681 140.761C106.621 140.962 106.542 141.158 106.446 141.345C106.356 141.539 106.248 141.724 106.123 141.899L105.888 142.161L105.682 142.365L105.418 142.569L105.213 142.744L104.39 143.328L104.096 143.532H103.773L102.892 143.328H102.393H101.982L101.042 142.89C100.883 142.836 100.734 142.758 100.601 142.657L100.16 142.424L99.8667 142.074L99.4849 141.782L99.1324 141.49C98.8931 141.292 98.6674 141.077 98.4569 140.849C98.006 140.43 97.584 139.982 97.1938 139.507L98.0457 139.886L98.8681 140.266L99.6611 140.674L100.072 140.878L100.484 141.053L100.865 141.228L101.247 141.403H101.629H101.982H102.422H102.833H103.715H103.127L103.95 140.79L104.155 140.645H104.302C104.396 140.561 104.475 140.462 104.537 140.353C104.607 140.243 104.666 140.125 104.713 140.003L104.889 139.566V139.332C104.889 139.157 105.036 138.982 105.095 138.837C105.156 138.673 105.234 138.516 105.33 138.37C105.469 138.051 105.626 137.739 105.8 137.437L106.094 136.97L106.358 136.533L107.327 135.746Z" fill="#4D2F4F"/>
<path d="M110.088 125.801C109.472 128.105 108.209 133.85 103.245 136.124C101.701 136.737 100.044 137.017 98.3833 136.947C96.7226 136.876 95.0958 136.457 93.6104 135.716C92.0372 134.787 90.5351 133.744 89.1164 132.596L88.1177 131.867L87.7359 131.517C86.587 130.512 85.4984 129.441 84.4755 128.309C83.1679 126.894 81.97 125.383 80.8921 123.789C82.7891 124.594 84.7552 125.229 86.7666 125.685C90.3207 126.414 92.8761 121.544 93.0229 121.194C93.7572 119.386 93.2873 115.916 94.6678 115.362C96.0483 114.807 99.8667 119.561 100.16 118.861C101.35 119.472 102.669 119.791 104.008 119.791C105.347 119.791 106.667 119.472 107.856 118.861C108.821 118.329 109.658 117.594 110.308 116.708C110.957 115.821 111.403 114.804 111.616 113.729C111.682 115.676 111.604 117.625 111.381 119.561C111.205 121.048 110.94 122.477 110.617 124.168C110.603 124.333 110.603 124.499 110.617 124.664C110.294 125.043 110.176 125.393 110.088 125.801Z" fill="#392727"/>
<path d="M94.4035 110.987L94.6385 112.037C94.7854 112.737 94.991 113.728 95.1966 114.953C95.3267 115.921 95.3267 116.902 95.1966 117.869C95.1193 118.713 94.9418 119.545 94.6679 120.348C94.3735 121.176 93.9685 121.96 93.4636 122.681C92.9933 123.394 92.3961 124.017 91.7013 124.518C90.0387 125.439 88.1387 125.85 86.2411 125.699C84.3435 125.549 82.5333 124.843 81.0391 123.672C81.0391 123.672 87.3248 125.859 90.6439 123.439C91.1811 122.941 91.6195 122.348 91.9362 121.689C92.2793 121.089 92.527 120.44 92.6706 119.765C92.8179 119.115 92.8771 118.448 92.8468 117.782C92.9189 116.994 92.8289 116.201 92.5824 115.449C92.2887 114.37 91.995 113.466 91.76 112.824L91.4075 111.804L94.4035 110.987Z" fill="#4D2F4F"/>
<path d="M93.1401 111.717C93.1401 111.717 93.3164 112.067 93.5807 112.708C93.8451 113.35 94.315 114.254 94.9025 115.333C95.4899 116.412 95.7543 116.412 96.8411 117.607C97.4028 118.26 98.0556 118.829 98.7797 119.299C99.5178 119.782 100.318 120.164 101.159 120.436C101.96 120.722 102.804 120.87 103.655 120.873C105.543 120.593 107.306 119.765 108.722 118.494C110.138 117.223 111.145 115.566 111.615 113.729C111.615 113.729 107.914 119.211 103.802 119.269C103.075 119.196 102.368 118.988 101.717 118.657C101.078 118.375 100.485 118.001 99.9546 117.549C99.4517 117.114 98.9986 116.625 98.6034 116.091C98.0858 115.485 97.6783 114.794 97.3991 114.05C96.9586 113 96.6648 112.125 96.4299 111.454L96.1068 110.434L93.1401 111.717Z" fill="#4D2F4F"/>
<path d="M78.5718 127.959L78.3368 127.784L78.1312 127.61L77.9256 127.376L77.7494 127.114V126.822C77.7329 126.726 77.7329 126.627 77.7494 126.531C77.6866 126.33 77.6375 126.125 77.6025 125.918V125.393C77.5893 125.287 77.5893 125.179 77.6025 125.072V124.752C77.5856 124.636 77.5856 124.518 77.6025 124.402V124.11C77.6332 124.005 77.683 123.906 77.7494 123.819L77.9256 123.527L78.1018 123.235L78.3074 122.973L78.5424 122.74C78.6249 122.665 78.7133 122.596 78.8068 122.535L79.0711 122.361L79.3061 122.186H79.5998H79.7467H79.9229H80.4516H81.1272H81.4209H81.7147H82.0084H82.2434H81.979C81.8913 122.173 81.8023 122.173 81.7147 122.186H81.4797C81.4797 122.186 81.3034 122.186 81.2447 122.186H81.0391H80.8335L80.3635 122.477H80.1873C80.0723 122.577 79.9643 122.684 79.8642 122.798C79.759 122.898 79.6609 123.005 79.5705 123.119V123.294V123.469V123.644C79.5052 123.767 79.4464 123.893 79.3942 124.023V124.198V124.402V124.664V124.868V125.335V126.064C79.4096 126.151 79.4096 126.24 79.3942 126.326C79.3942 126.326 79.3942 126.501 79.3942 126.589C79.3942 126.676 78.5718 127.872 78.5718 127.959Z" fill="#4D2F4F"/>
<path d="M120.428 94.5116C116.932 87.7171 109.149 79.9311 103.274 82.8472C99.632 84.6843 97.7228 96.0863 97.3997 99.6732C100.719 93.6368 120.428 94.5116 120.428 94.5116Z" fill="#BFC2D1"/>
<path d="M104.596 94.8614C103.785 90.7948 104.528 86.574 106.681 83.022C101.482 83.4302 98.8095 91.7703 98.7507 98.0108C98.7507 98.0108 101.336 96.5819 104.625 95.0947L104.596 94.8614Z" fill="#BFC2D1"/>
<path d="M97.5466 99.6436V99.352C97.6416 99.0753 97.7698 98.811 97.9285 98.5647V98.3022C97.9798 98.1941 98.0493 98.0955 98.1341 98.0106L98.604 97.4274L99.2502 96.8442L100.043 96.2609L100.924 95.7361L101.952 95.2695L103.039 94.8612L104.214 94.5404L104.831 94.3655H105.448L106.711 94.1614L108.003 93.9864H109.325C110.186 93.9427 111.049 93.9427 111.91 93.9864H113.173H114.406L116.756 94.2197L118.812 94.5404C119.851 94.6976 120.881 94.9118 121.896 95.182L122.719 95.4153H123.013H121.838H118.724H114.377C112.762 95.4153 111.087 95.4153 109.413 95.4153C108.561 95.4153 107.739 95.4153 106.916 95.6194C106.094 95.8235 105.272 95.7944 104.508 95.9402C103.775 96.0774 103.049 96.2526 102.334 96.4651L101.365 96.7858C101.055 96.8848 100.751 97.0017 100.454 97.1358L99.6908 97.544L99.0152 97.9523L98.4572 98.3897C98.3716 98.46 98.2929 98.5381 98.2222 98.623L98.0166 98.8271C97.8186 99.0305 97.6323 99.2447 97.4585 99.4687L97.5466 99.6436Z" fill="#4D2F4F"/>
<path d="M125.656 88.4458L125.891 88.6499L126.097 88.9124L126.302 89.204V89.5248C126.302 89.5248 126.302 89.7289 126.302 89.8455V90.1955C126.316 90.3117 126.316 90.4292 126.302 90.5454C126.302 90.5454 126.302 90.7787 126.302 90.8953V91.566C126.316 91.6823 126.316 91.7998 126.302 91.916V92.2951C126.319 92.4111 126.319 92.529 126.302 92.645V92.9949L126.097 93.3157L125.891 93.6073L125.656 93.8989L125.421 94.1614L125.127 94.4238L124.834 94.628L124.51 94.8321L124.187 94.9779H123.864H123.688H123.512H123.189H122.836H122.484C122.367 94.9925 122.248 94.9925 122.131 94.9779H121.779H121.456H121.133C121.025 94.9373 120.926 94.8781 120.839 94.8029H121.162H121.485H121.779H122.073H122.337H122.601H122.836L123.13 94.6571H123.365L123.6 94.5113L123.805 94.3363L124.011 94.1614C124.093 94.1207 124.164 94.0606 124.217 93.9864L124.393 93.8114V93.6073L124.569 93.4032L124.716 93.1991C124.725 93.1216 124.725 93.0433 124.716 92.9658V92.7325C124.726 92.6648 124.726 92.5961 124.716 92.5284V92.2951C124.716 92.2951 124.716 92.2951 124.716 92.1493V91.8577V91.7118C124.705 91.615 124.705 91.5171 124.716 91.4202C124.716 91.4202 124.716 91.2453 124.716 91.1578C124.731 91.0611 124.731 90.9628 124.716 90.8662C124.716 90.8662 124.716 90.662 124.716 90.5746C124.702 90.4779 124.702 90.3796 124.716 90.2829C124.716 90.2829 124.716 90.0788 124.716 89.9622C124.716 89.8455 124.716 89.7581 124.716 89.6706C124.748 89.4017 124.852 89.1463 125.018 88.9309C125.183 88.7156 125.403 88.548 125.656 88.4458Z" fill="#4D2F4F"/>
<path d="M123.013 89.4669L123.218 89.6419C123.218 89.6419 123.218 89.6419 123.424 89.846V90.1084C123.433 90.1957 123.433 90.2837 123.424 90.3709V90.6333V90.9249V91.5373V92.0914C123.451 92.1966 123.451 92.307 123.424 92.4122V92.7329C123.44 92.8295 123.44 92.928 123.424 93.0246V93.3162L123.248 93.6078L123.071 93.8702L122.866 94.1327C122.806 94.2175 122.737 94.2957 122.66 94.366L122.425 94.5701L122.161 94.7742L121.896 94.92C121.799 94.9358 121.7 94.9358 121.603 94.92H121.338H121.162H120.604H119.987H119.693H119.4H119.135H118.9H119.194H119.429H119.693H119.928H120.134H120.34L120.81 94.6867H121.015H121.191L121.485 94.3951V94.2202V94.0743V93.8994V93.7536L121.691 93.3745V93.1995C121.705 93.1672 121.712 93.1325 121.712 93.0975C121.712 93.0624 121.705 93.0277 121.691 92.9954V92.7621V92.558V92.0914C121.705 92.0143 121.705 91.9352 121.691 91.8581V90.4C121.705 90.3229 121.705 90.2439 121.691 90.1668C121.677 90.0798 121.677 89.9912 121.691 89.9043C121.691 89.9043 121.691 89.7293 121.691 89.6419C121.863 89.4754 122.084 89.3684 122.322 89.3369C122.561 89.3053 122.803 89.3509 123.013 89.4669Z" fill="#4D2F4F"/>
<path d="M114.553 111.017V110.813V110.55V110.346C114.553 110.346 114.553 110.346 114.406 110.142V109.967L114.259 109.763L113.936 109.442L113.731 109.267H113.554H113.378C113.271 109.182 113.153 109.113 113.026 109.063H112.82H112.644H112.438H112.262H111.851H111.41H109.266H109.002H108.737H108.502H108.208V108.801L108.385 108.538L108.561 108.305L108.796 108.101L109.06 107.926C109.134 107.848 109.224 107.788 109.325 107.751L109.824 107.518H110.176H110.5H111.616H111.939H112.262H112.556L112.849 107.663H113.143L113.407 107.838C113.509 107.9 113.598 107.979 113.672 108.072L113.936 108.305L114.142 108.538V108.772L114.318 109.034L114.582 109.617C114.582 109.617 114.582 109.821 114.582 109.909V110.2C114.597 110.307 114.597 110.415 114.582 110.521V110.842C114.569 110.929 114.569 111.017 114.582 111.104C114.572 111.075 114.562 111.046 114.553 111.017Z" fill="#4D2F4F"/>
<path d="M115.552 108.189V108.014V107.809V107.634C115.501 107.517 115.432 107.409 115.346 107.314L115.141 107.022L114.876 106.818L114.583 106.643H114.436H114.26H113.907C113.791 106.615 113.67 106.615 113.555 106.643H113.202H112.82H111.616H111.44H111.264H111.087H110.911H110.735V106.468H110.882C110.882 106.468 110.882 106.468 111.058 106.468H111.234H111.44H111.792H112.027H112.673C112.819 106.44 112.969 106.44 113.114 106.468H113.32H113.525H113.731H113.907L114.289 106.701L114.583 107.022V107.168L114.759 107.547V107.751V107.955C114.746 108.032 114.746 108.111 114.759 108.189V108.772L115.552 108.189Z" fill="#4D2F4F"/>
<path d="M92.5827 106.41C88.1181 107.664 85.1808 110.813 85.9151 113.729C90.3797 112.446 92.0833 115.041 94.7269 114.283C97.3704 113.525 97.6641 110.405 101.982 109.151C101.336 106.351 97.0767 105.156 92.5827 106.41Z" fill="#4D2F4F"/>
<path d="M65.9417 72.4954C65.9417 72.4954 66.6172 67.713 73.4904 62.9889L76.9857 60.5977C75.9776 61.9557 75.0929 63.4 74.3422 64.9135L73.0792 67.4797C77.5633 64.2345 82.5143 61.6785 87.7654 59.8978C91.319 58.7917 95.0013 58.1449 98.7214 57.9731C98.7214 57.9731 89.9096 60.4227 86.9724 64.2136C84.0351 68.0046 83.3008 68.2962 83.3008 68.2962C84.6789 67.4672 86.16 66.8202 87.7067 66.3716C89.2325 66.1436 90.7792 66.0849 92.3181 66.1966C90.2972 67.0387 88.3348 68.0129 86.4436 69.1127C84.4179 70.262 82.6331 71.7865 81.186 73.6035L65.9417 72.4954Z" fill="#BFC2D1"/>
<g style="mix-blend-mode:screen" opacity="0.3">
<g style="mix-blend-mode:screen" opacity="0.3">
<path d="M72.5208 76.5778C73.6076 80.3688 78.3953 82.41 83.2418 80.952C88.0882 79.4939 91.1136 75.4114 90.0268 71.6204C88.94 67.8294 84.1523 65.7882 79.3059 67.2754C74.4594 68.7626 71.434 72.9035 72.5208 76.5778Z" fill="#E6CFB9"/>
</g>
</g>
<path d="M65.9417 72.4957C66.0986 71.8244 66.3455 71.177 66.676 70.571C66.9645 69.9428 67.3189 69.3466 67.7334 68.7922C68.5317 67.6605 69.4581 66.6233 70.4944 65.7011C71.5074 64.7747 72.5981 63.9357 73.7547 63.1932L77.2501 60.9187L76.7507 60.3646L75.5758 61.9976C75.194 62.5809 74.8415 63.1349 74.5184 63.7181C74.1953 64.3014 73.8722 64.8846 73.5785 65.4678L72.668 67.2466L71.6987 69.0546L73.4316 67.8882C74.3716 67.2466 75.3408 66.6343 76.3689 66.0219L79.3061 64.3014C81.2531 63.0977 83.3325 62.1193 85.5037 61.3852C86.0324 61.1714 86.5611 60.9964 87.0898 60.8603L88.7641 60.4229L92.1419 59.6647C93.2581 59.4314 94.4036 59.1982 95.5198 59.0232C96.0828 58.9073 96.6514 58.8197 97.2234 58.7607H98.0458H98.7801V57.4776C97.2451 57.9334 95.7352 58.4687 94.2567 59.0815C92.7595 59.7032 91.3155 60.4444 89.939 61.2978C89.2454 61.7316 88.5873 62.2191 87.971 62.7558L87.0898 63.6598C86.8255 64.0097 86.6199 64.3305 86.3849 64.6221C86.1499 64.9137 85.445 65.8761 84.9457 66.4593L84.182 67.3341L83.7708 67.7132L83.5945 67.8882L84.0057 68.7339C84.6519 68.3256 85.3275 67.9465 86.0031 67.5966C86.6812 67.2525 87.3889 66.9695 88.1179 66.7509C88.8741 66.6126 89.6402 66.5346 90.4089 66.5176C91.1818 66.4739 91.9565 66.4739 92.7294 66.5176V65.9052L89.6159 67.3633C88.6172 67.8882 87.6186 68.4422 86.6786 69.0546C85.7295 69.6695 84.8264 70.3517 83.9764 71.0959C83.1069 71.839 82.3281 72.6807 81.6559 73.6038C82.3687 72.7307 83.1764 71.9386 84.0645 71.2417C84.9991 70.5357 85.9804 69.8927 87.0017 69.3171C87.971 68.763 88.9991 68.2673 89.939 67.8007C90.8789 67.3341 91.9951 66.8967 93.0525 66.4884L94.3155 65.9927H92.9643H90.5558C89.7476 65.9996 88.9416 66.0776 88.1473 66.226C87.35 66.4136 86.573 66.6773 85.8268 67.0133C85.0925 67.3341 84.3876 67.6841 83.6826 68.0632L84.0939 68.9088H84.2407H84.3876L84.6226 68.7047L85.0925 68.2673L85.9149 67.3924C86.4437 66.8092 86.9724 66.1968 87.4717 65.5845L87.8242 64.1556C88.066 63.8716 88.3313 63.6083 88.6172 63.3682C89.1796 62.8728 89.7896 62.4333 90.4383 62.056C91.7579 61.2599 93.1434 60.577 94.5798 60.0147C96.0191 59.4314 97.5171 58.9065 98.9857 58.4691L101.923 57.5943L98.7507 57.186H97.7521H96.8415C96.2541 57.186 95.6666 57.2735 95.0792 57.4485C93.9336 57.6235 92.7881 57.8567 91.6426 58.09C90.4971 58.3233 89.3515 58.5858 88.2354 58.8774L86.5024 59.3148L84.8282 59.898C82.6325 60.7674 80.5108 61.8109 78.4837 63.0183C76.4624 64.1827 74.5017 65.448 72.6092 66.8092L73.3729 67.4508L74.2541 65.6719C74.5184 65.0887 74.8121 64.5055 75.1059 63.9223C75.4003 63.3427 75.7238 62.7782 76.0752 62.2309C76.3983 61.6769 76.7801 61.1228 77.1326 60.5979L78.4543 58.7899L76.6332 60.0438L73.4316 62.6975C72.2918 63.5134 71.221 64.4204 70.23 65.4095C69.2288 66.3861 68.342 67.472 67.5865 68.6464C67.223 69.247 66.8992 69.8704 66.6172 70.5127C66.3209 71.1477 66.0944 71.8125 65.9417 72.4957Z" fill="#4D2F4F"/>
<path d="M53.3407 120.552C53.236 120.557 53.1316 120.539 53.0351 120.498C52.9386 120.458 52.8523 120.397 52.7826 120.319C52.7115 120.251 52.655 120.169 52.6164 120.079C52.5778 119.989 52.5579 119.892 52.5579 119.794C52.5579 119.696 52.5778 119.599 52.6164 119.509C52.655 119.419 52.7115 119.337 52.7826 119.269C53.135 118.919 61.5943 110.842 78.1604 117.403C78.3478 117.481 78.4979 117.627 78.5799 117.811C78.6618 117.996 78.6694 118.205 78.601 118.394C78.5231 118.58 78.3741 118.727 78.1869 118.804C77.9996 118.88 77.7893 118.88 77.6024 118.803C62.0055 112.591 53.9281 120.261 53.8694 120.348C53.7261 120.481 53.5368 120.554 53.3407 120.552Z" fill="#4D2F4F"/>
<path d="M56.6892 125.043C56.5288 125.054 56.3707 125.001 56.2486 124.898C56.0862 124.781 55.9767 124.605 55.9437 124.409C55.9108 124.212 55.957 124.011 56.0723 123.848C58.688 120.78 62.1847 118.577 66.0951 117.535C70.0054 116.493 74.1431 116.66 77.9548 118.016C78.1398 118.078 78.2937 118.208 78.3848 118.38C78.4759 118.552 78.4973 118.751 78.4446 118.938C78.392 119.125 78.2692 119.284 78.1016 119.384C77.934 119.484 77.7343 119.516 77.5436 119.474C64.1498 115.566 57.5703 124.256 57.306 124.606C57.2504 124.726 57.1643 124.829 57.0561 124.906C56.9479 124.983 56.8214 125.03 56.6892 125.043Z" fill="#4D2F4F"/>
<path d="M60.067 129.534C59.9333 129.577 59.7896 129.577 59.6558 129.534C59.5717 129.484 59.4987 129.417 59.4412 129.338C59.3836 129.259 59.3426 129.169 59.3207 129.074C59.2988 128.978 59.2964 128.88 59.3136 128.784C59.3308 128.687 59.3672 128.596 59.4208 128.514C59.6852 128.047 66.529 117.316 77.7199 119.095C77.9182 119.13 78.0942 119.242 78.2098 119.406C78.3253 119.57 78.3709 119.773 78.3367 119.97C78.3009 120.166 78.1882 120.341 78.0232 120.456C77.8581 120.571 77.6541 120.616 77.4556 120.582C67.2927 118.978 60.772 129.185 60.7132 129.33C60.6286 129.411 60.5263 129.472 60.4142 129.508C60.3021 129.543 60.1833 129.552 60.067 129.534Z" fill="#4D2F4F"/>
<path d="M110.03 110.812C109.848 110.813 109.672 110.751 109.53 110.637C109.459 110.569 109.403 110.488 109.364 110.398C109.326 110.308 109.306 110.211 109.306 110.113C109.306 110.015 109.326 109.918 109.364 109.827C109.403 109.737 109.459 109.656 109.53 109.588C120.809 95.9985 132.177 99.1479 132.647 99.1479C132.841 99.2023 133.006 99.3311 133.105 99.506C133.204 99.681 133.229 99.8878 133.175 100.081C133.114 100.276 132.979 100.441 132.798 100.539C132.617 100.637 132.405 100.661 132.206 100.606C131.795 100.46 121.309 97.6899 110.588 110.462C110.529 110.56 110.448 110.642 110.351 110.703C110.254 110.764 110.144 110.801 110.03 110.812Z" fill="#4D2F4F"/>
<path d="M110.499 111.396C110.402 111.4 110.305 111.384 110.214 111.349C110.123 111.314 110.04 111.26 109.971 111.191C109.832 111.045 109.755 110.852 109.755 110.652C109.755 110.451 109.832 110.259 109.971 110.112C112.67 107.137 116.221 105.051 120.147 104.133C124.074 103.216 128.189 103.512 131.941 104.98C132.034 105.017 132.118 105.074 132.188 105.145C132.257 105.217 132.31 105.303 132.344 105.397C132.377 105.491 132.39 105.59 132.381 105.689C132.373 105.789 132.343 105.885 132.294 105.972C132.253 106.061 132.194 106.141 132.121 106.208C132.049 106.274 131.963 106.325 131.87 106.358C131.776 106.39 131.677 106.404 131.579 106.398C131.48 106.392 131.384 106.366 131.295 106.322C130.884 106.117 120.927 101.568 111.028 111.337C110.866 111.425 110.677 111.445 110.499 111.396Z" fill="#4D2F4F"/>
<path d="M111.058 112.095C110.937 112.094 110.818 112.064 110.711 112.009C110.603 111.953 110.511 111.873 110.441 111.774C110.305 111.633 110.229 111.445 110.229 111.25C110.229 111.054 110.305 110.866 110.441 110.725C119.429 103.901 130.561 110.112 131.002 110.375C131.092 110.423 131.171 110.489 131.235 110.569C131.298 110.648 131.345 110.74 131.373 110.838C131.4 110.936 131.407 111.038 131.394 111.139C131.381 111.24 131.347 111.337 131.296 111.425C131.192 111.592 131.027 111.713 130.835 111.762C130.643 111.811 130.44 111.784 130.268 111.687C130.268 111.687 119.517 105.855 111.322 111.92C111.25 112 111.159 112.06 111.058 112.095Z" fill="#4D2F4F"/>
<path d="M80.804 116.645C80.8302 116.746 80.8358 116.852 80.8203 116.955C80.8049 117.059 80.7688 117.159 80.714 117.248C80.6593 117.338 80.5871 117.416 80.5017 117.477C80.4163 117.539 80.3193 117.583 80.2165 117.607C80.1182 117.633 80.0155 117.639 79.9146 117.626C79.8137 117.612 79.7166 117.578 79.629 117.526C79.5414 117.475 79.4651 117.406 79.4046 117.325C79.3441 117.244 79.3006 117.151 79.2766 117.053C79.2457 116.953 79.2357 116.848 79.2474 116.745C79.2591 116.641 79.2922 116.541 79.3445 116.451C79.3969 116.361 79.4675 116.282 79.5518 116.22C79.6361 116.158 79.7324 116.114 79.8347 116.09C80.0372 116.037 80.2528 116.065 80.4345 116.169C80.6161 116.273 80.7489 116.444 80.804 116.645Z" fill="#4D2F4F"/>
<path d="M80.5398 118.831C80.5707 118.931 80.5807 119.036 80.569 119.139C80.5573 119.243 80.5242 119.343 80.4719 119.433C80.4195 119.524 80.3489 119.602 80.2646 119.664C80.1803 119.726 80.084 119.77 79.9817 119.794C79.7792 119.847 79.5635 119.819 79.3819 119.715C79.2003 119.611 79.0674 119.44 79.0124 119.24C78.9817 119.138 78.9728 119.031 78.9864 118.926C78.9999 118.821 79.0354 118.72 79.0908 118.629C79.1462 118.538 79.2201 118.46 79.3078 118.4C79.3954 118.339 79.495 118.297 79.5998 118.277C79.6982 118.251 79.8009 118.245 79.9018 118.259C80.0027 118.272 80.0998 118.306 80.1874 118.358C80.275 118.409 80.3513 118.478 80.4118 118.559C80.4723 118.641 80.5158 118.733 80.5398 118.831Z" fill="#4D2F4F"/>
<path d="M82.7425 117.811C82.7687 117.913 82.7743 118.018 82.7588 118.122C82.7434 118.226 82.7072 118.325 82.6525 118.415C82.5978 118.505 82.5256 118.582 82.4402 118.644C82.3547 118.706 82.2578 118.75 82.155 118.773C82.0546 118.799 81.95 118.805 81.8475 118.789C81.7449 118.773 81.6467 118.737 81.5588 118.682C81.4708 118.628 81.395 118.556 81.3359 118.471C81.2768 118.387 81.2357 118.291 81.2151 118.19C81.1748 118.086 81.1573 117.975 81.1636 117.864C81.1699 117.752 81.2 117.644 81.2518 117.545C81.3036 117.446 81.376 117.359 81.4641 117.29C81.5522 117.221 81.6541 117.171 81.7631 117.144C81.872 117.117 81.9855 117.113 82.096 117.133C82.2065 117.153 82.3115 117.196 82.4041 117.259C82.4966 117.322 82.5747 117.404 82.633 117.499C82.6914 117.594 82.7287 117.701 82.7425 117.811Z" fill="#4D2F4F"/>
<path d="M106.74 110.112C106.76 110.216 106.802 110.315 106.863 110.402C106.924 110.489 107.003 110.563 107.094 110.618C107.186 110.673 107.288 110.708 107.394 110.721C107.499 110.735 107.607 110.726 107.709 110.696C107.912 110.641 108.084 110.509 108.188 110.329C108.293 110.148 108.321 109.934 108.268 109.733C108.244 109.632 108.2 109.536 108.137 109.452C108.075 109.369 107.995 109.299 107.904 109.247C107.813 109.195 107.713 109.162 107.608 109.15C107.504 109.139 107.398 109.148 107.298 109.179C107.199 109.203 107.106 109.246 107.024 109.306C106.942 109.366 106.873 109.442 106.821 109.529C106.769 109.616 106.735 109.712 106.721 109.813C106.707 109.913 106.714 110.015 106.74 110.112Z" fill="#4D2F4F"/>
<path d="M108.032 111.95C108.053 112.05 108.094 112.146 108.153 112.231C108.212 112.315 108.288 112.387 108.376 112.442C108.464 112.496 108.562 112.533 108.665 112.548C108.767 112.564 108.872 112.559 108.972 112.533C109.075 112.509 109.172 112.465 109.258 112.403C109.343 112.342 109.415 112.264 109.47 112.174C109.525 112.085 109.561 111.985 109.576 111.881C109.592 111.778 109.586 111.672 109.56 111.57C109.546 111.46 109.509 111.353 109.45 111.258C109.392 111.163 109.314 111.081 109.221 111.018C109.129 110.955 109.024 110.912 108.913 110.892C108.803 110.873 108.689 110.876 108.58 110.903C108.472 110.93 108.37 110.98 108.281 111.049C108.193 111.118 108.121 111.205 108.069 111.304C108.017 111.403 107.987 111.512 107.981 111.623C107.975 111.734 107.992 111.845 108.032 111.95Z" fill="#4D2F4F"/>
<path d="M105.741 112.066C105.755 112.176 105.792 112.283 105.851 112.378C105.909 112.473 105.987 112.555 106.08 112.618C106.172 112.681 106.277 112.724 106.388 112.744C106.498 112.764 106.612 112.76 106.721 112.733C106.83 112.706 106.932 112.656 107.02 112.587C107.108 112.518 107.18 112.431 107.232 112.332C107.284 112.233 107.314 112.125 107.32 112.013C107.327 111.902 107.309 111.791 107.269 111.687C107.199 111.507 107.066 111.359 106.894 111.27C106.723 111.182 106.524 111.159 106.336 111.205C106.148 111.252 105.984 111.365 105.874 111.524C105.765 111.682 105.718 111.875 105.741 112.066Z" fill="#4D2F4F"/>
<path d="M135.113 175.114C135.251 172.646 135.034 170.172 134.467 167.765C146.216 145.894 131.706 145.749 131.236 134.696C133.253 134.386 135.083 133.348 136.376 131.78C139.314 128.427 140.988 124.636 137.522 114.284C136.023 110.594 135.611 106.557 136.334 102.644C137.057 98.7302 138.884 95.1013 141.605 92.1795C144.248 89.2634 149.476 89.0301 151.327 92.4128C152.799 95.0084 153.737 97.8689 154.085 100.828C154.433 103.787 154.184 106.785 153.354 109.647C150.416 118.599 148.331 127.814 161.196 135.367C164.133 137.029 164.779 145.194 162.048 149.277C160.403 151.727 161.196 155.838 161.02 158.754C160.638 165.52 159.962 170.419 155.586 175.318C152.649 178.555 145.217 180.071 140.577 178.963C138.256 178.409 134.702 177.243 132.763 176.718C132.734 175.493 135.113 176.047 135.113 175.114Z" fill="#BFC2D1"/>
<path d="M119.928 134.008L118.563 138.625C117.531 142.117 119.547 145.779 123.065 146.804L145.753 153.412C149.271 154.437 152.96 152.436 153.992 148.944L155.356 144.327C156.388 140.834 154.373 137.172 150.855 136.147L128.166 129.539C124.648 128.515 120.96 130.515 119.928 134.008Z" fill="#BFC2D1"/>
<path d="M118.473 151.987L117.258 156.1C116.341 159.207 118.134 162.463 121.263 163.374L141.472 169.256C144.601 170.167 147.881 168.387 148.799 165.281L150.013 161.167C150.931 158.061 149.138 154.804 146.009 153.894L125.8 148.011C122.671 147.101 119.39 148.88 118.473 151.987Z" fill="#BFC2D1"/>
<path d="M124.535 168.125L123.857 170.42C123.341 172.166 124.349 173.997 126.107 174.509L137.41 177.801C139.168 178.313 141.013 177.313 141.529 175.567L142.207 173.272C142.723 171.526 141.715 169.695 139.956 169.183L128.654 165.891C126.895 165.378 125.051 166.379 124.535 168.125Z" fill="#BFC2D1"/>
<g style="mix-blend-mode:multiply">
<g style="mix-blend-mode:multiply">
<path d="M117.637 154.788C118.959 157.704 122.19 161.408 143.72 164.207C145.952 164.47 151.357 164.47 152.708 161.67C153.736 159.512 154.235 155.838 152.208 154.584C149.824 153.338 147.222 152.556 144.542 152.28L140.518 151.639L139.431 151.435C139.211 151.352 138.985 151.284 138.756 151.231L136.993 150.735L135.584 150.443L123.071 146.769C121.503 146.325 120.156 145.318 119.293 143.944C118.431 142.57 118.112 140.927 118.401 139.333L118.665 139.624C118.856 140.505 119.294 141.313 119.928 141.957C122.021 143.782 124.566 145.02 127.301 145.544C131.043 146.374 134.863 146.814 138.697 146.856C142.78 146.856 154.558 147.323 155.058 141.345C155.074 141.19 155.074 141.034 155.058 140.878C155.058 140.587 155.058 140.295 155.058 140.004C155.072 139.839 155.072 139.673 155.058 139.508C155.557 137.029 152.825 135.396 150.916 134.521C146.54 132.538 140.724 132.83 136.024 131.926C137.253 130.454 138.243 128.801 138.961 127.027C139.167 126.841 139.327 126.612 139.431 126.356C142.163 118.57 147.303 111.951 150.182 104.281C151.121 100.463 151.594 96.5469 151.592 92.6167C154.091 97.8322 154.703 103.744 153.325 109.355C150.387 118.366 148.302 127.523 161.167 135.075C164.104 136.738 164.75 144.903 162.019 148.985C160.374 151.435 161.167 155.546 160.991 158.463C160.609 165.228 159.933 170.127 155.557 175.026C152.62 178.263 145.188 179.779 140.548 178.671C139.285 178.351 137.61 177.884 136.024 177.417L126.038 174.501C125.198 174.251 124.492 173.682 124.074 172.917C123.655 172.152 123.559 171.254 123.805 170.419L123.981 169.806L125.098 170.535C126.184 171.206 130.62 174.735 143.132 175.434C145.168 175.347 147.097 174.504 148.537 173.072C148.771 172.677 148.913 172.235 148.954 171.779C148.995 171.322 148.933 170.862 148.773 170.433C148.613 170.003 148.358 169.614 148.028 169.294C147.697 168.973 147.299 168.73 146.863 168.582C144.936 168.14 142.965 167.925 140.988 167.94C138.521 167.678 136.024 167.357 133.557 167.036L121.25 163.303C120.506 163.089 119.812 162.731 119.208 162.249C118.604 161.768 118.102 161.173 117.731 160.498C117.36 159.823 117.127 159.082 117.045 158.317C116.963 157.553 117.035 156.779 117.255 156.042L117.637 154.788Z" fill="#BFC2D1"/>
</g>
</g>
<g style="mix-blend-mode:screen" opacity="0.5">
<g style="mix-blend-mode:screen" opacity="0.5">
<path d="M124.599 133.15C125.863 135.012 127.488 136.605 129.379 137.837C131.27 139.069 133.39 139.914 135.613 140.324C142.486 141.986 149.095 140.674 149.477 139.187C149.859 137.7 143.838 136.504 136.935 134.9C127.213 132.596 123.806 131.401 124.599 133.15Z" fill="#BFC2D1"/>
</g>
</g>
<g style="mix-blend-mode:screen" opacity="0.5">
<g style="mix-blend-mode:screen" opacity="0.5">
<path d="M126.302 152.514C126.038 153.622 129.709 156.509 134.82 157.734C139.931 158.959 144.542 158.084 144.807 156.976C145.071 155.868 140.9 154.934 135.789 153.71C130.678 152.485 126.713 151.377 126.302 152.514Z" fill="#BFC2D1"/>
</g>
</g>
<g opacity="0.5">
<g style="mix-blend-mode:screen" opacity="0.3">
<path d="M130.414 169.486C130.414 170.098 132.382 171.614 135.172 172.11C137.963 172.606 140.43 171.935 140.548 171.323C140.665 170.71 138.374 170.419 135.584 169.894C132.793 169.369 130.532 168.873 130.414 169.486Z" fill="#BFC2D1"/>
</g>
</g>
<path d="M154.5 151.435C154.082 151.64 153.65 151.816 153.207 151.96C152.034 152.36 150.824 152.643 149.594 152.806C148.831 152.806 147.979 153.01 147.098 153.068H145.747H144.307H142.839L141.341 152.864C140.841 152.864 140.342 152.689 139.843 152.602L138.345 152.252L137.61 152.047H137.405H137.229H136.847L135.437 151.61L132.5 150.706L129.915 149.831L127.771 148.723C126.331 148.198 125.156 147.732 124.334 147.382C123.904 147.219 123.482 147.034 123.071 146.828L124.452 147.061C125.303 147.236 126.566 147.469 128.035 147.819C128.769 147.819 129.592 148.14 130.414 148.373L133.058 149.015L135.995 149.773L137.464 150.181H137.816H137.992H138.168L138.873 150.356C139.346 150.5 139.827 150.617 140.313 150.706C140.783 150.706 141.282 150.939 141.752 150.998L143.162 151.26L144.572 151.464H145.923H147.215C148.067 151.464 148.889 151.464 149.624 151.464C150.785 151.583 151.952 151.641 153.119 151.639H154.147L154.5 151.435Z" fill="#4D2F4F"/>
<path d="M152.267 132.13C151.926 132.301 151.572 132.447 151.21 132.568C150.796 132.725 150.374 132.861 149.947 132.976L148.272 133.384C146.847 133.637 145.403 133.774 143.955 133.792C143.143 133.836 142.329 133.836 141.517 133.792C140.68 133.738 139.847 133.641 139.02 133.501C138.189 133.383 137.365 133.218 136.553 133.005C135.73 132.801 134.937 132.568 134.203 132.334C132.734 131.897 131.266 131.401 130.208 130.964L128.622 130.351L127.418 129.826L126.625 129.477H126.419H126.654H127.506H128.828L130.502 129.768C131.736 130.001 133.145 130.322 134.643 130.701L136.935 131.314C137.698 131.518 138.491 131.693 139.284 131.839C140.077 131.984 140.9 132.13 141.664 132.218L144.013 132.48C145.403 132.55 146.795 132.55 148.184 132.48H149.359L151.151 132.276L152.267 132.13Z" fill="#4D2F4F"/>
<path d="M151.592 167.532C151.162 167.733 150.721 167.908 150.27 168.057C149.095 168.458 147.886 168.751 146.657 168.932C145.84 169.058 145.016 169.136 144.19 169.165H141.253H139.784L138.286 168.961L136.788 168.669C136.289 168.669 135.789 168.436 135.29 168.319L134.526 168.115H134.35H134.144H133.792L132.353 167.678L129.592 166.774L127.007 165.899L124.686 165.082C123.277 164.558 122.102 164.091 121.279 163.741C120.457 163.391 119.987 163.187 119.987 163.187L121.367 163.42C122.249 163.595 123.482 163.829 124.98 164.178C125.714 164.324 126.508 164.499 127.359 164.733L130.003 165.374L132.94 166.132L134.379 166.541H134.761H134.967L135.672 166.716C136.143 166.863 136.624 166.98 137.111 167.065L138.55 167.386L139.96 167.62L141.341 167.824L142.721 167.969H144.014C144.865 167.969 145.658 167.969 146.422 167.969C147.63 167.971 148.837 167.893 150.035 167.736L151.034 167.59L151.592 167.532Z" fill="#4D2F4F"/>
<path d="M118.459 151.989C118.612 151.534 118.809 151.094 119.046 150.677L119.223 150.385L119.428 150.093C119.575 149.889 119.751 149.743 119.898 149.539C120.236 149.207 120.611 148.914 121.014 148.664C121.424 148.419 121.857 148.214 122.307 148.052C123.256 147.757 124.262 147.687 125.244 147.848L125.949 148.023L126.625 148.227L128.005 148.606L139.02 151.785V151.318L126.889 147.819L123.952 146.973L123.188 146.74C122.934 146.668 122.688 146.57 122.454 146.448H122.101L121.749 146.244C121.513 146.115 121.287 145.969 121.073 145.807C120.205 145.156 119.509 144.305 119.046 143.328C118.583 142.354 118.361 141.284 118.4 140.208C118.429 139.665 118.517 139.127 118.665 138.604L119.076 137.087L119.957 134.171C120.018 133.914 120.096 133.66 120.192 133.413L120.544 132.655C120.795 132.176 121.111 131.735 121.484 131.343C121.853 130.938 122.267 130.576 122.718 130.264C123.176 129.954 123.669 129.7 124.187 129.506C124.698 129.312 125.23 129.175 125.773 129.097C126.319 129.024 126.872 129.024 127.418 129.097H127.829H128.24L129.004 129.301L130.531 129.739L136.611 131.43H136.2C136.927 130.631 137.558 129.75 138.08 128.806C138.577 127.894 138.924 126.91 139.108 125.89C139.108 125.365 139.108 124.84 139.284 124.315C139.314 123.781 139.314 123.245 139.284 122.711C139.284 122.419 139.284 122.157 139.284 121.894V121.078V120.699V120.291L138.52 119.562C138.52 119.008 138.285 118.483 138.168 117.958C138.05 117.433 137.874 116.908 137.727 116.383C137.58 115.858 137.404 115.333 137.257 114.808L136.993 114.021L136.758 113.234L136.523 112.417L136.317 111.601L136.141 110.813L135.994 109.997C135.994 109.705 135.994 109.443 135.994 109.151V108.305C135.965 107.742 135.965 107.177 135.994 106.614C135.979 105.484 136.038 104.354 136.171 103.231L136.435 101.54L136.641 100.723V100.315V99.907L136.876 99.0904C136.946 98.8129 137.034 98.5402 137.14 98.2739C137.316 97.7199 137.522 97.195 137.727 96.6701L138.432 95.1245C138.697 94.6288 138.932 94.1331 139.225 93.6373C139.783 92.6458 140.4 91.7127 141.046 90.7212C141.822 89.7861 142.82 89.0577 143.951 88.6018C145.081 88.146 146.309 87.9769 147.521 88.1101C148.734 88.2432 149.895 88.6743 150.897 89.3644C151.9 90.0545 152.714 90.9819 153.265 92.0626C154.343 95.052 155.014 98.1705 155.263 101.336C155.37 102.942 155.301 104.556 155.057 106.147C155.057 106.556 155.057 106.935 154.851 107.343L154.587 108.51L154.205 109.676L153.853 110.784C152.812 113.594 152.198 116.543 152.032 119.532C151.988 120.271 151.988 121.011 152.032 121.749C152.133 122.476 152.28 123.197 152.472 123.907C152.87 125.319 153.495 126.658 154.323 127.873C156.037 130.407 158.281 132.546 160.902 134.142L161.402 134.463L161.666 134.638L161.901 134.784L162.224 135.046L162.459 135.309C162.623 135.469 162.77 135.645 162.9 135.834C163.355 136.557 163.701 137.343 163.928 138.166C164.349 139.705 164.537 141.297 164.486 142.891C164.439 144.518 164.111 146.126 163.516 147.644C163.365 148.034 163.188 148.413 162.988 148.781C162.891 148.962 162.783 149.138 162.665 149.306L162.371 149.773L162.165 150.21L162.018 150.706V151.231V151.756C161.886 153.269 161.886 154.791 162.018 156.305C162.062 157.091 162.062 157.88 162.018 158.667C162.018 159.454 162.018 160.212 161.871 161C161.743 162.565 161.527 164.123 161.225 165.665C160.911 167.219 160.428 168.735 159.786 170.185C159.138 171.64 158.298 173.003 157.289 174.239C157.054 174.56 156.761 174.851 156.526 175.172L156.32 175.376C156.32 175.376 156.056 175.639 155.88 175.755C155.567 176.033 155.233 176.286 154.881 176.513L154.382 176.834L153.853 177.097C152.421 177.81 150.9 178.33 149.329 178.642C147.569 179.122 145.75 179.358 143.925 179.342C143.129 179.342 142.333 179.283 141.546 179.167L140.371 178.905L139.255 178.584L134.731 177.301L125.773 174.589C124.997 174.279 124.353 173.713 123.952 172.985C123.568 172.27 123.454 171.443 123.629 170.652C123.834 169.865 124.069 169.136 124.304 168.407C124.394 168.017 124.543 167.644 124.745 167.298C124.952 166.952 125.22 166.646 125.538 166.394C126.171 165.896 126.962 165.638 127.77 165.665C128.172 165.681 128.568 165.76 128.945 165.899L130.061 166.219L134.555 167.561L134.702 167.24L121.455 163.332L120.633 163.041C120.369 162.932 120.114 162.806 119.869 162.662C119.368 162.369 118.921 161.995 118.547 161.554C118.135 161.223 117.778 160.829 117.49 160.387C117.253 159.867 117.085 159.318 116.99 158.754C116.902 158.184 116.902 157.604 116.99 157.034C117.082 156.47 117.22 155.914 117.402 155.371L118.459 151.989ZM118.459 151.989L117.49 155.284C117.298 155.825 117.151 156.381 117.049 156.946C116.961 157.507 116.961 158.077 117.049 158.638C117.09 159.242 117.239 159.835 117.49 160.387C117.729 160.914 118.057 161.397 118.459 161.816C118.65 162.025 118.856 162.22 119.076 162.399C119.299 162.581 119.534 162.747 119.781 162.895L120.544 163.274C120.813 163.379 121.087 163.467 121.367 163.537L134.643 167.357V167.648L130.149 166.365L128.916 166.219C128.557 166.093 128.18 166.024 127.799 166.015C127.042 165.991 126.301 166.24 125.714 166.715C125.417 166.947 125.167 167.235 124.98 167.561C124.783 167.885 124.644 168.24 124.568 168.611C124.363 169.369 124.128 170.127 123.922 170.856C123.761 171.584 123.887 172.346 124.275 172.985C124.634 173.634 125.219 174.131 125.92 174.385L134.908 176.951C136.406 177.388 137.845 177.767 139.431 178.176L140.547 178.496L141.663 178.7C142.423 178.793 143.188 178.841 143.954 178.846C145.497 178.822 147.033 178.636 148.536 178.292C150 177.899 151.411 177.331 152.737 176.601L153.236 176.309L153.706 176.018C154.029 175.813 154.293 175.58 154.558 175.376L155.086 174.968L155.292 174.764L156.026 173.889C157.081 172.648 157.952 171.263 158.611 169.777C159.702 166.98 160.327 164.025 160.462 161.029C160.462 160.271 160.462 159.512 160.462 158.725C160.506 157.967 160.506 157.208 160.462 156.45C160.33 154.869 160.33 153.279 160.462 151.697V151.085V150.472L160.667 149.86L160.961 149.248L161.548 148.723C161.548 148.548 161.754 148.402 161.842 148.256L162.283 147.265C162.792 145.861 163.06 144.382 163.076 142.891C163.124 141.414 162.945 139.939 162.547 138.516C162.343 137.847 162.047 137.209 161.666 136.621C161.575 136.489 161.477 136.363 161.372 136.242L161.196 136.067L160.961 135.921H160.726L160.227 135.629C157.427 134.003 154.997 131.819 153.089 129.214C152.16 127.856 151.456 126.36 151.004 124.781C150.774 124 150.616 123.2 150.534 122.39C150.476 121.584 150.476 120.776 150.534 119.97C150.719 116.788 151.352 113.647 152.414 110.638L152.795 109.53L153.118 108.451L153.383 107.372C153.383 107.022 153.383 106.643 153.588 106.293C153.794 104.806 153.853 103.302 153.765 101.802C153.542 98.815 152.909 95.8718 151.885 93.0541C151.385 92.2925 150.722 91.6502 149.942 91.1735C149.163 90.6969 148.286 90.3976 147.376 90.2972C146.466 90.1968 145.545 90.2978 144.679 90.593C143.813 90.8882 143.024 91.3701 142.368 92.0043C141.751 92.9083 141.135 93.7831 140.606 94.7454L139.842 96.1452C139.607 96.6409 139.372 97.1366 139.167 97.6324C138.961 98.1281 138.726 98.6239 138.55 99.1196L138.05 99.4404L137.815 100.228V100.607V100.986L137.639 101.773C137.639 102.298 137.434 102.823 137.345 103.348C137.194 104.42 137.116 105.502 137.11 106.585C137.11 107.11 137.11 107.635 137.11 108.189V108.976C137.094 109.248 137.094 109.521 137.11 109.793V110.58L137.287 111.367L137.463 112.155C137.463 112.417 137.463 112.68 137.669 112.942L138.05 113.729L138.285 114.517C138.432 115.071 138.608 115.596 138.755 116.121C138.902 116.645 139.049 117.2 139.167 117.754C139.284 118.308 139.431 118.833 139.519 119.387V120.232V120.641V121.049V121.894C139.534 122.176 139.534 122.458 139.519 122.74C139.563 123.303 139.563 123.869 139.519 124.431C139.479 125.008 139.411 125.582 139.313 126.152C139.086 127.274 138.69 128.355 138.139 129.36C137.573 130.349 136.893 131.269 136.112 132.101V132.305H135.877L129.826 130.497L128.299 130.03L127.564 129.826H127.183H126.83C126.333 129.768 125.83 129.768 125.332 129.826C124.828 129.87 124.333 129.988 123.863 130.176C123.389 130.337 122.936 130.552 122.512 130.818C122.091 131.101 121.706 131.434 121.367 131.809C121.015 132.18 120.709 132.591 120.456 133.034C120.456 133.238 120.251 133.471 120.133 133.705C120.042 133.943 119.963 134.187 119.898 134.434L118.958 137.35L118.518 138.837C118.387 139.324 118.298 139.822 118.253 140.324C118.221 141.328 118.422 142.326 118.841 143.24C119.251 144.184 119.898 145.007 120.721 145.632C120.926 145.777 121.132 145.952 121.337 146.069L121.69 146.273H122.013L122.747 146.565L123.511 146.798L126.448 147.702L138.55 151.289V151.756L127.917 148.723L126.536 148.344L125.861 148.14L125.156 147.965C124.678 147.906 124.195 147.906 123.717 147.965C123.236 147.981 122.761 148.07 122.307 148.227C121.853 148.367 121.419 148.563 121.014 148.81C120.61 149.07 120.236 149.373 119.898 149.714C119.736 149.876 119.588 150.051 119.458 150.239L119.223 150.531L119.046 150.822C118.817 151.193 118.62 151.584 118.459 151.989Z" fill="#4D2F4F"/>
<g style="mix-blend-mode:screen" opacity="0.5">
<g style="mix-blend-mode:screen" opacity="0.5">
<path d="M143.22 105.622C145.423 106.206 147.979 103.639 149.095 99.936C150.211 96.2326 149.095 92.7332 146.804 92.1792C144.513 91.6251 142.046 94.1913 140.929 98.0114C139.813 101.832 140.988 104.981 143.22 105.622Z" fill="#BFC2D1"/>
</g>
</g>
<defs>
<linearGradient id="paint0_linear_45_3467" x1="106.437" y1="74.4705" x2="114.139" y2="27.5247" gradientUnits="userSpaceOnUse">
<stop stop-color="#E27892"/>
<stop offset="0.71" stop-color="#E2AFB8"/>
</linearGradient>
<linearGradient id="paint1_linear_45_3467" x1="-7487.22" y1="5514.81" x2="-7883.01" y2="5069.36" gradientUnits="userSpaceOnUse">
<stop stop-color="#E27892"/>
<stop offset="0.71" stop-color="#E2AFB8"/>
</linearGradient>
</defs>
</svg>
