<svg width="26" height="27" viewBox="0 0 26 27" fill="none" xmlns="http://www.w3.org/2000/svg">
<path d="M24.7924 23.7811L18.9588 17.9474C20.5236 16.1484 21.4711 13.8011 21.4711 11.2355C21.4711 5.58816 16.8776 1 11.2355 1C5.58816 1 1 5.59348 1 11.2355C1 16.8776 5.59348 21.4711 11.2355 21.4711C13.8011 21.4711 16.1484 20.5236 17.9474 18.9587L23.7811 24.7924C23.9195 24.9308 24.1058 25.0053 24.2868 25.0053C24.4677 25.0053 24.654 24.9361 24.7924 24.7924C25.0692 24.5156 25.0692 24.0579 24.7924 23.7811ZM2.4318 11.2355C2.4318 6.38124 6.38124 2.43713 11.2302 2.43713C16.0845 2.43713 20.0286 6.38656 20.0286 11.2355C20.0286 16.0845 16.0845 20.0393 11.2302 20.0393C6.38124 20.0393 2.4318 16.0898 2.4318 11.2355Z" fill="white" stroke="white" stroke-width="2"/>
</svg>
