<svg width="16" height="16" viewBox="0 0 16 16" fill="none" xmlns="http://www.w3.org/2000/svg">
<g opacity="0.5">
<path d="M10.1077 8.85536C10.5841 7.70127 10.027 6.38262 8.86329 5.91012C7.6996 5.43759 6.37 5.99009 5.89352 7.14416C5.41705 8.29825 5.97416 9.6169 7.13787 10.0894C8.30156 10.5619 9.63116 10.0095 10.1077 8.85536Z" stroke="#747F8B" stroke-linecap="round" stroke-linejoin="round"/>
<path d="M12.5537 11.2956L14.5845 11.8448C14.9537 11.2346 15.1998 10.6243 15.3845 9.89191L13.5998 8.85437C13.6614 8.24409 13.6614 7.6948 13.5998 7.14557L15.3845 6.04702C15.1998 5.37569 14.9537 4.70436 14.5845 4.09406L12.5537 4.64333C12.1845 4.15509 11.8152 3.78891 11.3229 3.42273L11.8768 1.40875C11.2614 1.04256 10.646 0.798446 9.90754 0.615356L8.86139 2.38522C8.246 2.32419 7.69216 2.32419 7.13831 2.38522L6.03062 0.676384C5.41523 0.859473 4.73831 1.1036 4.12293 1.46977L4.67677 3.48376C4.18446 3.84994 3.81523 4.21612 3.446 4.70436L1.41523 4.21612C1.046 4.82642 0.79985 5.43672 0.615234 6.16908L2.39985 7.20656C2.33831 7.81689 2.33831 8.36612 2.39985 8.97646L0.615234 9.95296C0.79985 10.6243 1.046 11.2346 1.41523 11.9059L3.446 11.3566C3.81523 11.8448 4.18446 12.211 4.67677 12.5772L4.12293 14.5912C4.73831 14.9574 5.3537 15.2015 6.09216 15.3846L7.13831 13.6147C7.7537 13.6757 8.30754 13.6757 8.86139 13.6147L9.90754 15.3846C10.5845 15.2015 11.2614 14.9574 11.8768 14.5912L11.3229 12.5772C11.8152 12.15 12.246 11.7838 12.5537 11.2956Z" stroke="#747F8B" stroke-linecap="round" stroke-linejoin="round"/>
</g>
</svg>
