<svg width="18" height="20" viewBox="0 0 18 20" fill="none" xmlns="http://www.w3.org/2000/svg">
<g opacity="0.5">
<path d="M8.9998 13.8794C5.71506 13.8794 2.62556 15.1406 0.299805 17.4314L1.96559 19.072C3.84608 17.2194 6.34426 16.1995 8.9998 16.1995C11.6553 16.1995 14.1535 17.2194 16.034 19.072L17.6998 17.4312C15.3742 15.1406 12.2846 13.8794 8.9998 13.8794Z" fill="#747F8B"/>
<path fill-rule="evenodd" clip-rule="evenodd" d="M8.99722 10.189C11.0502 10.189 12.6512 8.55936 12.6512 6.62646C12.6512 4.69355 11.0502 3.06393 8.99722 3.06393C6.94429 3.06393 5.34323 4.69355 5.34323 6.62646C5.34323 8.55936 6.94429 10.189 8.99722 10.189ZM8.99722 12.625C12.3606 12.625 15.0872 9.93935 15.0872 6.62646C15.0872 3.31356 12.3606 0.62793 8.99722 0.62793C5.63381 0.62793 2.90723 3.31356 2.90723 6.62646C2.90723 9.93935 5.63381 12.625 8.99722 12.625Z" fill="#747F8B"/>
</g>
</svg>
